<?xml version="1.0" encoding="UTF-8"?>
<svg width="282px" height="222px" viewBox="0 0 282 222" version="1.1" xmlns="http://www.w3.org/2000/svg" xmlns:xlink="http://www.w3.org/1999/xlink">
    <!-- Generator: sketchtool 52.5 (67469) - http://www.bohemiancoding.com/sketch -->
    <title>69112CE4-7E37-4CAA-B5B9-768694CA1373</title>
    <desc>Created with sketchtool.</desc>
    <defs>
        <path d="M38.342448,19.991766 C41.1341212,26.085555 42.702967,31.851672 40.6471653,34.423875 C40.5256483,34.575723 40.3930339,34.715139 40.2494329,34.842012 C38.6659385,36.23706 35.5518846,36.26814 30.2942483,34.191552 C16.3017023,28.662975 15.6375202,19.12197 12.8074499,9.804741 C10.0175523,0.604173 0.271887394,2.158728 0.0234156082,2.200353 C22.7313397,-5.711283 33.6059477,9.661218 38.342448,19.991766" id="path-1"></path>
        <linearGradient x1="101.618534%" y1="52.6389032%" x2="-1.85969291%" y2="46.1671309%" id="linearGradient-3">
            <stop stop-color="#40D4E6" offset="0%"></stop>
            <stop stop-color="#5477FF" offset="100%"></stop>
        </linearGradient>
        <path d="M20.7827394,25.987875 C20.6612224,26.139723 20.528608,26.279139 20.385007,26.406012 C17.7565773,24.822375 12.7237751,21.464625 10.3508086,17.695065 C9.23163127,15.915735 8.29112283,13.915404 7.29312964,11.7993 C5.41055913,7.796529 3.45973934,3.657561 0.0563750187,0.483294 L0.435796651,0.073926 C3.91706503,3.323895 5.88852607,7.511259 7.79562193,11.562759 C8.78473717,13.664544 9.71814324,15.64878 10.8217841,17.397585 C13.1356013,21.074904 18.2206724,24.445863 20.7827394,25.987875" id="path-4"></path>
        <linearGradient x1="114.059711%" y1="112.430299%" x2="17.3327729%" y2="26.2120931%" id="linearGradient-6">
            <stop stop-color="#40D4E6" offset="0%"></stop>
            <stop stop-color="#5477FF" offset="100%"></stop>
        </linearGradient>
        <path d="M16.8235041,35.468607 C16.658818,35.87409 16.5522826,36.103638 16.5406303,36.12939 C16.4976831,35.905503 16.4558458,35.683392 16.4133426,35.468829 C14.5466414,25.902294 12.0504932,24.902739 4.56593262,16.534227 C-3.08830787,7.975239 1.31349355,0.001665 1.31349355,0.001665 C26.9565808,7.412358 18.5661358,31.191999 16.8235041,35.468607" id="path-7"></path>
        <linearGradient x1="101.178529%" y1="51.6146862%" x2="-3.37892375%" y2="48.5780475%" id="linearGradient-9">
            <stop stop-color="#40D4E6" offset="0%"></stop>
            <stop stop-color="#5477FF" offset="100%"></stop>
        </linearGradient>
        <path d="M9.27724176,25.478607 C9.11255569,25.88409 9.00602022,26.113638 8.9943679,26.13939 C8.95142079,25.915503 8.90958342,25.693392 8.86708021,25.478829 C9.69772394,17.208552 4.70953355,7.503711 3.14213047,5.762565 C1.52034991,3.958926 0.521025026,1.479297 0.143711908,0.544899 C0.0801235503,0.390054 0.020641247,0.242313 0.00122071891,0.208014 L0.36288644,0.003663 C0.394625131,0.059718 0.4360186,0.162726 0.528349339,0.389721 C0.897228399,1.304916 1.87835348,3.735261 3.45174918,5.482734 C5.43796982,7.69119 10.0396362,17.442429 9.27724176,25.478607" id="path-10"></path>
        <linearGradient x1="120.692482%" y1="94.1165478%" x2="-35.5114577%" y2="-4.9711837%" id="linearGradient-12">
            <stop stop-color="#40D4E6" offset="0%"></stop>
            <stop stop-color="#5477FF" offset="100%"></stop>
        </linearGradient>
        <linearGradient x1="-8.99841358e-06%" y1="50.00041%" x2="100.00027%" y2="50.00041%" id="linearGradient-13">
            <stop stop-color="#40D4E6" offset="0%"></stop>
            <stop stop-color="#5477FF" offset="100%"></stop>
        </linearGradient>
        <path d="M22.2994272,0.17649 C20.2000126,-0.82806 18.1104748,5.85747 18.1104748,5.85747 C14.5420914,10.57386 9.55512178,4.29903 10.0427435,11.34975 C10.896026,23.68629 -4.15455035,15.2292 2.78889881,28.10964 C9.73234797,40.99008 -3.34210643,35.39235 0.972912971,45.77862 C5.28793237,56.16378 -0.304846804,68.55138 6.18771318,63.46092 C6.18771318,63.46092 11.9044508,50.92125 17.8000792,47.0418 C23.6958187,43.16235 14.2680955,38.55918 16.1127128,33.29001 C18.7919688,25.63656 25.2473524,25.93626 20.5927512,17.71227 C15.9383719,9.48717 29.4364158,3.58974 22.2994272,0.17649" id="path-14"></path>
        <linearGradient x1="100.000014%" y1="49.9998093%" x2="-6.64305998e-05%" y2="49.9998093%" id="linearGradient-16">
            <stop stop-color="#40D4E6" offset="0%"></stop>
            <stop stop-color="#5477FF" offset="100%"></stop>
        </linearGradient>
        <path d="M5.01959616,1.33755 C3.35275997,0.42735 1.56507262,0.2442 0.86182755,0.91131 C0.327263642,1.41747 0.579397584,2.28549 0.88502121,2.92485 C1.46808095,4.14474 2.20550615,4.89732 2.85614933,5.5611 C3.76070204,6.48351 4.47515552,7.21278 4.11293493,8.62914 C4.04180031,8.90664 3.95990117,9.18747 3.87755813,9.4683 C3.3027105,11.43522 2.75960156,13.29336 5.76978341,14.64645 C6.47669064,14.96502 7.12467043,15.21921 7.69641078,15.44343 C10.0780334,16.37805 11.65154,16.99632 13.3382407,20.5572 C13.6521874,21.21987 13.9281808,21.84591 14.1950744,22.45086 C15.6509481,25.75089 16.5298657,27.74334 19.7128348,27.09954 C20.6251557,26.91528 21.2196458,26.44464 21.479659,25.70094 C22.148169,23.78841 20.5485834,20.44065 19.1363226,18.759 C19.0328944,18.63468 16.6049954,15.67431 16.871778,11.43744 C16.91528,10.74813 16.9861927,10.11432 17.0488932,9.55488 C17.2148,8.07303 17.3347634,7.00299 16.7852179,6.38583 C16.2828366,5.82084 15.1829689,5.56443 13.219387,5.55555 C9.27613202,5.53668 7.71949346,3.90609 6.46870048,2.59629 C5.96820572,2.07237 5.53607123,1.61949 5.01959616,1.33755 Z M13.7691544,22.63845 C13.5035926,22.03683 13.2287089,21.41412 12.9175365,20.757 C11.3098497,17.36151 9.88571465,16.80318 7.52628695,15.87633 C6.9497747,15.651 6.29624619,15.39459 5.57890737,15.07158 C2.19906963,13.55199 2.85348594,11.31312 3.43099696,9.33843 C3.51167538,9.06204 3.59224283,8.78565 3.66204575,8.5137 C3.9593463,7.35153 3.38816082,6.76878 2.52366988,5.88633 C1.88112784,5.23143 1.08155695,4.41447 0.465093905,3.12576 C-0.209519755,1.71495 0.134390055,0.95904 0.541666273,0.57276 C1.39905484,-0.23976 3.37617558,-0.08991 5.24265479,0.92907 C5.82260725,1.24542 6.30001932,1.74603 6.80528597,2.2755 C7.99526496,3.52203 9.47621895,5.0727 13.2216065,5.09046 C15.3573097,5.10045 16.5269804,5.3946 17.1329009,6.07614 C17.8204985,6.8487 17.6908804,8.00532 17.5114347,9.60705 C17.449289,10.16094 17.3790422,10.78809 17.336428,11.4663 C17.0816307,15.51225 19.4695788,18.43155 19.4932164,18.46041 C20.9200148,20.15982 22.6777391,23.68518 21.9190068,25.85523 C21.600954,26.76432 20.8897188,27.33708 19.8051655,27.55575 C19.3728091,27.64344 18.9782949,27.68562 18.6151866,27.68562 C15.9958567,27.68562 15.0365936,25.51224 13.7691544,22.63845 Z" id="path-17"></path>
        <linearGradient x1="99.9996353%" y1="50.0000341%" x2="-9.69449764e-05%" y2="50.0000341%" id="linearGradient-19">
            <stop stop-color="#40D4E6" offset="0%"></stop>
            <stop stop-color="#5477FF" offset="100%"></stop>
        </linearGradient>
        <path d="M16.0927374,26.70993 L16.5574984,26.68551 C16.5346376,26.24928 15.9482487,15.95292 11.8154493,12.94038 C7.28125537,9.63369 5.85168256,6.08169 5.1709653,3.69741 C4.36862005,0.88689 0.285315302,0.13653 0.111973216,0.10545 L0.0309618705,0.56388 C0.0705797479,0.57165 4.00129464,1.29537 4.72340536,3.82506 C5.42309924,6.27594 6.89118019,9.92562 11.5412314,13.31556 C15.4969156,16.20045 16.0872996,26.60559 16.0927374,26.70993" id="path-20"></path>
        <linearGradient x1="100%" y1="50%" x2="0%" y2="50%" id="linearGradient-22">
            <stop stop-color="#40D4E6" offset="0%"></stop>
            <stop stop-color="#5477FF" offset="100%"></stop>
        </linearGradient>
        <path d="M3.42511531,0.13209 C6.36260891,-0.87579 5.75236043,4.78743 6.99360961,8.97768 C8.23474782,13.16793 20.801827,10.80585 15.5267677,21.29757 C10.2517084,31.78929 22.1981075,24.80628 18.6297242,33.96267 C15.0613409,43.11795 18.3194397,52.91037 14.4406608,50.41953 C10.5619929,47.92869 12.2615666,36.39912 8.22775643,35.02938 C4.1938353,33.65964 3.53553489,32.06124 7.52961618,28.33719 C11.5235865,24.61203 -2.93605093,20.91462 0.632332395,13.39437 C4.20082669,5.87412 0.0312947939,1.29537 3.42511531,0.13209" id="path-23"></path>
        <linearGradient x1="99.9999018%" y1="49.9997647%" x2="-0.000280287686%" y2="49.9997647%" id="linearGradient-25">
            <stop stop-color="#40D4E6" offset="0%"></stop>
            <stop stop-color="#5477FF" offset="100%"></stop>
        </linearGradient>
        <polyline id="path-26" points="17.8422495 0.00333 13.6483033 15.91851 4.27573444 15.91851 0.081788167 0.00333 17.8422495 0.00333"></polyline>
        <linearGradient x1="-6.24839885e-05%" y1="50%" x2="99.9999375%" y2="50%" id="linearGradient-28">
            <stop stop-color="#FF9240" offset="0%"></stop>
            <stop stop-color="#FFCE45" offset="100%"></stop>
        </linearGradient>
        <path d="M17.8422495,0.00333 C17.8422495,0.00333 8.60939755,1.73715 8.60939755,15.91851 L4.27573444,15.91851 L0.081788167,0.00333 L17.8422495,0.00333" id="path-29"></path>
        <linearGradient x1="-6.24839885e-05%" y1="50%" x2="99.9999375%" y2="50%" id="linearGradient-31">
            <stop stop-color="#C87331" offset="0%"></stop>
            <stop stop-color="#FFCE45" offset="100%"></stop>
        </linearGradient>
    </defs>
    <g id="Page-1" stroke="none" stroke-width="1" fill="none" fill-rule="evenodd">
        <g id="Completed-age-Copy" transform="translate(-595.000000, -190.000000)">
            <g id="19283" transform="translate(595.000000, 190.000000)">
                <polygon id="Fill-1" fill="#FCFCFC" points="0.00665846678 222 281.88952 222 281.88952 0 0.00665846678 0"></polygon>
                <g id="Group-5" transform="translate(42.281264, 75.813000)">
                    <mask id="mask-2" fill="white">
                        <use xlink:href="#path-1"></use>
                    </mask>
                    <g id="Clip-4"></g>
                    <path d="M38.342448,19.991766 C41.1341212,26.085555 42.702967,31.851672 40.6471653,34.423875 C40.5256483,34.575723 40.3930339,34.715139 40.2494329,34.842012 C38.6659385,36.23706 35.5518846,36.26814 30.2942483,34.191552 C16.3017023,28.662975 15.6375202,19.12197 12.8074499,9.804741 C10.0175523,0.604173 0.271887394,2.158728 0.0234156082,2.200353 C22.7313397,-5.711283 33.6059477,9.661218 38.342448,19.991766" id="Fill-3" fill="url(#linearGradient-3)" mask="url(#mask-2)"></path>
                </g>
                <g id="Group-8" transform="translate(62.145690, 84.249000)">
                    <mask id="mask-5" fill="white">
                        <use xlink:href="#path-4"></use>
                    </mask>
                    <g id="Clip-7"></g>
                    <path d="M20.7827394,25.987875 C20.6612224,26.139723 20.528608,26.279139 20.385007,26.406012 C17.7565773,24.822375 12.7237751,21.464625 10.3508086,17.695065 C9.23163127,15.915735 8.29112283,13.915404 7.29312964,11.7993 C5.41055913,7.796529 3.45973934,3.657561 0.0563750187,0.483294 L0.435796651,0.073926 C3.91706503,3.323895 5.88852607,7.511259 7.79562193,11.562759 C8.78473717,13.664544 9.71814324,15.64878 10.8217841,17.397585 C13.1356013,21.074904 18.2206724,24.445863 20.7827394,25.987875" id="Fill-6" fill="url(#linearGradient-6)" mask="url(#mask-5)"></path>
                </g>
                <g id="Group-11" transform="translate(61.368869, 62.826000)">
                    <mask id="mask-8" fill="white">
                        <use xlink:href="#path-7"></use>
                    </mask>
                    <g id="Clip-10"></g>
                    <path d="M16.8235041,35.468607 C16.658818,35.87409 16.5522826,36.103638 16.5406303,36.12939 C16.4976831,35.905503 16.4558458,35.683392 16.4133426,35.468829 C14.5466414,25.902294 12.0504932,24.902739 4.56593262,16.534227 C-3.08830787,7.975239 1.31349355,0.001665 1.31349355,0.001665 C26.9565808,7.412358 18.5661358,31.191999 16.8235041,35.468607" id="Fill-9" fill="url(#linearGradient-9)" mask="url(#mask-8)"></path>
                </g>
                <g id="Group-14" transform="translate(68.915131, 72.816000)">
                    <mask id="mask-11" fill="white">
                        <use xlink:href="#path-10"></use>
                    </mask>
                    <g id="Clip-13"></g>
                    <path d="M9.27724176,25.478607 C9.11255569,25.88409 9.00602022,26.113638 8.9943679,26.13939 C8.95142079,25.915503 8.90958342,25.693392 8.86708021,25.478829 C9.69772394,17.208552 4.70953355,7.503711 3.14213047,5.762565 C1.52034991,3.958926 0.521025026,1.479297 0.143711908,0.544899 C0.0801235503,0.390054 0.020641247,0.242313 0.00122071891,0.208014 L0.36288644,0.003663 C0.394625131,0.059718 0.4360186,0.162726 0.528349339,0.389721 C0.897228399,1.304916 1.87835348,3.735261 3.45174918,5.482734 C5.43796982,7.69119 10.0396362,17.442429 9.27724176,25.478607" id="Fill-12" fill="url(#linearGradient-12)" mask="url(#mask-11)"></path>
                </g>
                <path d="M223.625717,58.969416 L220.465164,53.794041 C220.205484,53.369577 220.339763,52.815354 220.763686,52.55628 C221.188718,52.297095 221.74248,52.431072 222.001051,52.855314 L224.236076,56.515206 L230.177648,52.997949 C230.604899,52.744647 231.157552,52.886283 231.410574,53.314299 C231.663596,53.742204 231.522658,54.294429 231.094297,54.547731 L223.625717,58.969416" id="Fill-15" fill="#F0C141"></path>
                <path d="M225.747548,45.835563 C220.375275,45.835563 216.005101,50.206743 216.005101,55.579698 C216.005101,60.952653 220.375275,65.323722 225.747548,65.323722 C231.118711,65.323722 235.488885,60.952653 235.488885,55.579698 C235.488885,50.206743 231.118711,45.835563 225.747548,45.835563 Z M225.747548,66.947763 C219.479711,66.947763 214.381545,61.847979 214.381545,55.579698 C214.381545,49.311306 219.479711,44.211522 225.747548,44.211522 C232.014275,44.211522 237.112441,49.311306 237.112441,55.579698 C237.112441,61.847979 232.014275,66.947763 225.747548,66.947763 Z" id="Fill-16" fill="#F0C141"></path>
                <path d="M188.426842,42.249375 L186.473691,39.051132 C186.313888,38.788839 186.397119,38.446293 186.659019,38.28612 C186.920918,38.126058 187.263829,38.208864 187.423633,38.470935 L188.805265,40.732671 L192.476299,38.55918 C192.740418,38.40267 193.08222,38.490138 193.238694,38.754651 C193.395168,39.019053 193.307498,39.360378 193.043379,39.516888 L188.426842,42.249375" id="Fill-17" fill="#F0C141"></path>
                <path d="M189.73856,34.132944 C186.419314,34.132944 183.718196,36.83424 183.718196,40.154583 C183.718196,43.474926 186.419314,46.176222 189.73856,46.176222 C193.057805,46.176222 195.758923,43.474926 195.758923,40.154583 C195.758923,36.83424 193.057805,34.132944 189.73856,34.132944 Z M189.73856,47.179773 C185.865551,47.179773 182.714987,44.028261 182.714987,40.154583 C182.714987,36.280794 185.865551,33.129282 189.73856,33.129282 C193.611568,33.129282 196.762132,36.280794 196.762132,40.154583 C196.762132,44.028261 193.611568,47.179773 189.73856,47.179773 Z" id="Fill-18" fill="#F0C141"></path>
                <path d="M152.310208,30.444081 L149.313898,25.537881 C149.068645,25.135617 149.195155,24.610143 149.597993,24.3645 C149.99972,24.118857 150.524629,24.245841 150.770993,24.647994 L152.889495,28.117521 L158.521448,24.783303 C158.926505,24.54321 159.450304,24.677409 159.690009,25.083114 C159.930823,25.488819 159.796544,26.012295 159.390378,26.252388 L152.310208,30.444081" id="Fill-19" fill="#F0C141"></path>
                <path d="M154.321065,17.993544 C149.229557,17.993544 145.085772,22.137285 145.085772,27.230631 C145.085772,32.324088 149.229557,36.467829 154.321065,36.467829 C159.413682,36.467829 163.556359,32.324088 163.556359,27.230631 C163.556359,22.137285 159.413682,17.993544 154.321065,17.993544 Z M154.321065,38.007288 C148.380603,38.007288 143.546556,33.172905 143.546556,27.230631 C143.546556,21.288468 148.380603,16.453974 154.321065,16.453974 C160.262637,16.453974 165.095574,21.288468 165.095574,27.230631 C165.095574,33.172905 160.262637,38.007288 154.321065,38.007288 Z" id="Fill-20" fill="#F0C141"></path>
                <path d="M120.621455,42.204531 L118.641671,38.962665 C118.479648,38.69682 118.562879,38.349723 118.829218,38.18733 C119.094447,38.024937 119.441797,38.108853 119.603819,38.374587 L121.004317,40.667181 L124.7264,38.464053 C124.993848,38.305323 125.340088,38.394012 125.498782,38.662188 C125.657475,38.930253 125.568696,39.276129 125.300138,39.434859 L120.621455,42.204531" id="Fill-21" fill="#F0C141"></path>
                <path d="M121.950929,33.977544 C118.586184,33.977544 115.848444,36.715581 115.848444,40.081212 C115.848444,43.446843 118.586184,46.184991 121.950929,46.184991 C125.315674,46.184991 128.053414,43.446843 128.053414,40.081212 C128.053414,36.715581 125.315674,33.977544 121.950929,33.977544 Z M121.950929,47.202195 C118.024653,47.202195 114.830808,44.007726 114.830808,40.081212 C114.830808,36.154698 118.024653,32.960229 121.950929,32.960229 C125.876095,32.960229 129.06994,36.154698 129.06994,40.081212 C129.06994,44.007726 125.876095,47.202195 121.950929,47.202195 Z" id="Fill-22" fill="#F0C141"></path>
                <path d="M92.8095941,26.631786 L90.3315347,22.573515 C90.1282295,22.240626 90.2333223,21.806061 90.5660237,21.602931 C90.8987251,21.39969 91.3330791,21.504696 91.5363843,21.837363 L93.2887817,24.707268 L97.9476,21.949251 C98.2831867,21.750672 98.716098,21.861672 98.9146313,22.197225 C99.1131646,22.532889 99.0021901,22.9659 98.6667144,23.164479 L92.8095941,26.631786" id="Fill-23" fill="#F0C141"></path>
                <path d="M94.4735449,16.332873 C90.2613989,16.332873 86.8345079,19.760553 86.8345079,23.973669 C86.8345079,28.186896 90.2613989,31.614465 94.4735449,31.614465 C98.685691,31.614465 102.112582,28.186896 102.112582,23.973669 C102.112582,19.760553 98.685691,16.332873 94.4735449,16.332873 Z M94.4735449,32.887968 C89.5592635,32.887968 85.5612981,28.888971 85.5612981,23.973669 C85.5612981,19.058367 89.5592635,15.05937 94.4735449,15.05937 C99.3877154,15.05937 103.385681,19.058367 103.385681,23.973669 C103.385681,28.888971 99.3877154,32.887968 94.4735449,32.887968 Z" id="Fill-24" fill="#F0C141"></path>
                <path d="M61.2414702,46.807257 L58.4940758,42.307983 C58.2685757,41.939019 58.3850989,41.457168 58.7539779,41.231838 C59.122857,41.006619 59.6044861,41.123058 59.8297642,41.491911 L61.7725939,44.673615 L66.9376775,41.615898 C67.3095529,41.395785 67.7896283,41.518773 68.0098016,41.890845 C68.229864,42.262917 68.1067933,42.742992 67.734807,42.963216 L61.2414702,46.807257" id="Fill-25" fill="#F0C141"></path>
                <path d="M63.0860874,35.389353 C58.4161717,35.389353 54.6169616,39.189438 54.6169616,43.860318 C54.6169616,48.531198 58.4161717,52.331394 63.0860874,52.331394 C67.7558921,52.331394 71.5551023,48.531198 71.5551023,43.860318 C71.5551023,39.189438 67.7558921,35.389353 63.0860874,35.389353 Z M63.0860874,53.743203 C57.6379079,53.743203 53.2053666,49.309752 53.2053666,43.860318 C53.2053666,38.410884 57.6379079,33.977544 63.0860874,33.977544 C68.5341559,33.977544 72.9665863,38.410884 72.9665863,43.860318 C72.9665863,49.309752 68.5341559,53.743203 63.0860874,53.743203 Z" id="Fill-26" fill="#F0C141"></path>
                <path d="M211.975619,28.307442 L210.414209,25.749114 C210.285478,25.539213 210.352063,25.265376 210.561805,25.137171 C210.771546,25.009077 211.045653,25.075344 211.173274,25.285023 L212.278579,27.094212 L215.214963,25.355619 C215.426924,25.2303 215.699922,25.300341 215.825323,25.511907 C215.949614,25.723473 215.8797,25.996533 215.668849,26.121741 L211.975619,28.307442" id="Fill-27" fill="#F0C141"></path>
                <path d="M213.025437,21.814941 C210.369819,21.814941 208.209146,23.975778 208.209146,26.631786 C208.209146,29.287794 210.369819,31.448631 213.025437,31.448631 C215.679946,31.448631 217.840619,29.287794 217.840619,26.631786 C217.840619,23.975778 215.679946,21.814941 213.025437,21.814941 Z M213.025437,32.251494 C209.927031,32.251494 207.406801,29.730462 207.406801,26.631786 C207.406801,23.53311 209.927031,21.012189 213.025437,21.012189 C216.122734,21.012189 218.642964,23.53311 218.642964,26.631786 C218.642964,29.730462 216.122734,32.251494 213.025437,32.251494 Z" id="Fill-28" fill="#F0C141"></path>
                <polygon id="Fill-29" fill="#8F8F8F" points="133.353553 184.23114 148.850025 184.23114 148.850025 137.15382 133.353553 137.15382"></polygon>
                <path d="M81.0033557,159.83112 L201.2,159.83112 C204.958705,159.83112 208.006063,156.78417 208.006063,153.0246 L208.006063,72.222483 C208.006063,68.462913 204.958705,65.415186 201.2,65.415186 L81.0033557,65.415186 C77.2447621,65.415186 74.1977368,68.462913 74.1977368,72.222483 L74.1977368,153.0246 C74.1977368,156.78417 77.2447621,159.83112 81.0033557,159.83112" id="Fill-30" fill="#F0F0F0"></path>
                <polygon id="Fill-31" fill="#FFFFFF" points="79.4380611 145.03593 202.76474 145.03593 202.76474 55.366245 79.4380611 55.366245"></polygon>
                <polygon id="Fill-32" fill="url(#linearGradient-13)" points="79.4380611 66.196626 202.76474 66.196626 202.76474 55.366245 79.4380611 55.366245"></polygon>
                <path d="M187.757666,151.80582 C187.757666,154.1901 190.029313,156.12372 192.832527,156.12372 C195.635742,156.12372 197.907389,154.1901 197.907389,151.80582 C197.907389,149.42154 195.635742,147.48903 192.832527,147.48903 C190.029313,147.48903 187.757666,149.42154 187.757666,151.80582" id="Fill-34" fill="#CCCCCC"></path>
                <polygon id="Fill-35" fill="#CCCCCC" points="106.244493 186.00825 175.958863 186.00825 175.958863 182.45403 106.244493 182.45403"></polygon>
                <path d="M100.708089,62.827665 L86.0599063,62.827665 C85.2475734,62.827665 84.589051,62.169102 84.589051,61.356471 L84.589051,60.206289 C84.589051,59.39388 85.2475734,58.735206 86.0599063,58.735206 L100.708089,58.735206 C101.520533,58.735206 102.178945,59.39388 102.178945,60.206289 L102.178945,61.356471 C102.178945,62.169102 101.520533,62.827665 100.708089,62.827665" id="Fill-36" fill="#F5F7FF"></path>
                <polygon id="Fill-37" fill="#E6E6E6" points="88.4736005 106.152963 153.042639 106.152963 153.042639 103.932963 88.4736005 103.932963"></polygon>
                <polygon id="Fill-38" fill="#E6E6E6" points="88.4736005 110.151183 136.36429 110.151183 136.36429 107.931294 88.4736005 107.931294"></polygon>
                <polygon id="Fill-39" fill="#E6E6E6" points="88.4736005 118.83882 118.840315 118.83882 118.840315 116.61882 88.4736005 116.61882"></polygon>
                <polygon id="Fill-40" fill="#E6E6E6" points="88.4736005 122.83815 143.029415 122.83815 143.029415 120.61815 88.4736005 120.61815"></polygon>
                <polygon id="Fill-41" fill="#E6E6E6" points="88.4736005 132.39081 139.580329 132.39081 139.580329 130.17081 88.4736005 130.17081"></polygon>
                <polygon id="Fill-42" fill="#E6E6E6" points="88.4736005 136.38903 150.880857 136.38903 150.880857 134.16903 88.4736005 134.16903"></polygon>
                <polygon id="Fill-43" fill="#78C2FF" points="85.322814 110.151183 86.9452604 110.151183 86.9452604 103.932963 85.322814 103.932963"></polygon>
                <polygon id="Fill-44" fill="#78C2FF" points="85.322814 122.83815 86.9452604 122.83815 86.9452604 116.61882 85.322814 116.61882"></polygon>
                <polygon id="Fill-45" fill="#78C2FF" points="85.322814 136.38903 86.9452604 136.38903 86.9452604 130.17081 85.322814 130.17081"></polygon>
                <path d="M174.487341,139.18956 L169.315932,139.18956 C168.288309,139.18956 167.454891,138.35595 167.454891,137.32809 L167.454891,132.15549 C167.454891,131.12763 168.288309,130.29402 169.315932,130.29402 L174.487341,130.29402 C175.514965,130.29402 176.348383,131.12763 176.348383,132.15549 L176.348383,137.32809 C176.348383,138.35595 175.514965,139.18956 174.487341,139.18956" id="Fill-46" fill="#78C2FF"></path>
                <path d="M171.619762,136.70094 L169.371419,134.74068 C169.187202,134.57973 169.168336,134.30001 169.329249,134.11575 C169.490162,133.93149 169.769818,133.91262 169.954035,134.07246 L171.543189,135.45885 L173.810397,132.93027 C173.97353,132.74823 174.254295,132.73269 174.436293,132.89586 C174.618291,133.05903 174.633828,133.33875 174.470695,133.52079 L171.619762,136.70094" id="Fill-47" fill="#F3F3F3"></path>
                <path d="M169.476845,117.30258 C168.671171,117.30258 168.015312,117.95859 168.015312,118.76556 L168.015312,123.61515 C168.015312,124.42101 168.671171,125.07702 169.476845,125.07702 L174.326429,125.07702 C175.132103,125.07702 175.787962,124.42101 175.787962,123.61515 L175.787962,118.76556 C175.787962,117.95859 175.132103,117.30258 174.326429,117.30258 L169.476845,117.30258 Z M174.326429,125.64201 L169.476845,125.64201 C168.359333,125.64201 167.450452,124.73292 167.450452,123.61515 L167.450452,118.76556 C167.450452,117.64779 168.359333,116.73759 169.476845,116.73759 L174.326429,116.73759 C175.443941,116.73759 176.352822,117.64779 176.352822,118.76556 L176.352822,123.61515 C176.352822,124.73292 175.443941,125.64201 174.326429,125.64201 Z" id="Fill-48" fill="#78C2FF"></path>
                <path d="M182.867022,130.85457 C182.061347,130.85457 181.405488,131.51058 181.405488,132.31755 L181.405488,137.16603 C181.405488,137.973 182.061347,138.62901 182.867022,138.62901 L187.716605,138.62901 C188.52228,138.62901 189.178139,137.973 189.178139,137.16603 L189.178139,132.31755 C189.178139,131.51058 188.52228,130.85457 187.716605,130.85457 L182.867022,130.85457 Z M187.716605,139.194 L182.867022,139.194 C181.749509,139.194 180.840629,138.28491 180.840629,137.16603 L180.840629,132.31755 C180.840629,131.19978 181.749509,130.28958 182.867022,130.28958 L187.716605,130.28958 C188.834118,130.28958 189.742999,131.19978 189.742999,132.31755 L189.742999,137.16603 C189.742999,138.28491 188.834118,139.194 187.716605,139.194 Z" id="Fill-49" fill="#78C2FF"></path>
                <path d="M187.877518,125.63757 L182.706109,125.63757 C181.678486,125.63757 180.845067,124.80396 180.845067,123.7761 L180.845067,118.6035 C180.845067,117.57564 181.678486,116.74203 182.706109,116.74203 L187.877518,116.74203 C188.905142,116.74203 189.73856,117.57564 189.73856,118.6035 L189.73856,123.7761 C189.73856,124.80396 188.905142,125.63757 187.877518,125.63757" id="Fill-50" fill="#78C2FF"></path>
                <path d="M185.009938,123.14895 L182.761596,121.18869 C182.577379,121.02774 182.558513,120.74802 182.719426,120.56376 C182.879229,120.3795 183.159994,120.36063 183.344212,120.52047 L184.933366,121.90797 L187.200574,119.37828 C187.363706,119.19624 187.644472,119.1807 187.82647,119.34387 C188.008468,119.50704 188.024004,119.78676 187.860872,119.9688 L185.009938,123.14895" id="Fill-51" fill="#F3F3F3"></path>
                <path d="M185.009938,123.14895 L182.761596,121.18869 C182.577379,121.02774 182.558513,120.74802 182.719426,120.56376 C182.879229,120.3795 183.159994,120.36063 183.344212,120.52047 L184.933366,121.90797 L187.200574,119.37828 C187.363706,119.19624 187.644472,119.1807 187.82647,119.34387 C188.008468,119.50704 188.024004,119.78676 187.860872,119.9688 L185.009938,123.14895" id="Fill-51-Copy" fill="#F3F3F3"></path>
                <path d="M187.877518,139.262119 L182.706109,139.262119 C181.678486,139.262119 180.845067,138.428509 180.845067,137.400649 L180.845067,132.228049 C180.845067,131.200189 181.678486,130.366579 182.706109,130.366579 L187.877518,130.366579 C188.905142,130.366579 189.73856,131.200189 189.73856,132.228049 L189.73856,137.400649 C189.73856,138.428509 188.905142,139.262119 187.877518,139.262119" id="Fill-50-Copy" fill="#78C2FF"></path>
                <path d="M185.009938,136.773499 L182.761596,134.813239 C182.577379,134.652289 182.558513,134.372569 182.719426,134.188309 C182.879229,134.004049 183.159994,133.985179 183.344212,134.145019 L184.933366,135.532519 L187.200574,133.002829 C187.363706,132.820789 187.644472,132.805249 187.82647,132.968419 C188.008468,133.131589 188.024004,133.411309 187.860872,133.593349 L185.009938,136.773499" id="Fill-51-Copy-2" fill="#F3F3F3"></path>
                <path d="M182.867022,103.750368 C182.061347,103.750368 181.405488,104.406711 181.405488,105.213459 L181.405488,110.062938 C181.405488,110.869353 182.061347,111.52614 182.867022,111.52614 L187.716605,111.52614 C188.52228,111.52614 189.178139,110.869353 189.178139,110.062938 L189.178139,105.213459 C189.178139,104.406711 188.52228,103.750368 187.716605,103.750368 L182.867022,103.750368 Z M187.716605,112.09002 L182.867022,112.09002 C181.749509,112.09002 180.840629,111.18093 180.840629,110.062938 L180.840629,105.213459 C180.840629,104.095467 181.749509,103.186044 182.867022,103.186044 L187.716605,103.186044 C188.834118,103.186044 189.742999,104.095467 189.742999,105.213459 L189.742999,110.062938 C189.742999,111.18093 188.834118,112.09002 187.716605,112.09002 Z" id="Fill-52" fill="#78C2FF"></path>
                <path d="M169.315932,112.08558 C168.288309,112.08558 167.454891,111.25197 167.454891,110.224443 L167.454891,105.051732 C167.454891,104.023761 168.288309,103.190373 169.315932,103.190373 L174.487341,103.190373 C175.514965,103.190373 176.348383,104.023761 176.348383,105.051732 L176.348383,110.224443 C176.348383,111.25197 175.514965,112.08558 174.487341,112.08558 L169.315932,112.08558 Z" id="Fill-53" fill="#78C2FF"></path>
                <path d="M169.315932,112.08558 C168.288309,112.08558 167.454891,111.25197 167.454891,110.224443 L167.454891,105.051732 C167.454891,104.023761 168.288309,103.190373 169.315932,103.190373 L174.487341,103.190373 C175.514965,103.190373 176.348383,104.023761 176.348383,105.051732 L176.348383,110.224443 C176.348383,111.25197 175.514965,112.08558 174.487341,112.08558 L169.315932,112.08558 Z" id="Fill-53-Copy" fill="#78C2FF"></path>
                <path d="M169.315932,125.710129 C168.288309,125.710129 167.454891,124.876519 167.454891,123.848992 L167.454891,118.676281 C167.454891,117.64831 168.288309,116.814922 169.315932,116.814922 L174.487341,116.814922 C175.514965,116.814922 176.348383,117.64831 176.348383,118.676281 L176.348383,123.848992 C176.348383,124.876519 175.514965,125.710129 174.487341,125.710129 L169.315932,125.710129 Z" id="Fill-53-Copy-3" fill="#78C2FF"></path>
                <path d="M169.371419,107.636922 C169.187202,107.476083 169.168336,107.196252 169.329249,107.011881 C169.490162,106.82751 169.769818,106.808418 169.954035,106.969146 L171.543189,108.355425 L173.810397,105.826068 C173.97353,105.643917 174.254295,105.628599 174.436293,105.791991 C174.618291,105.955272 174.633828,106.235325 174.470695,106.417476 L171.619762,109.597404 L169.371419,107.636922 Z" id="Fill-54" fill="#F3F3F3"></path>
                <path d="M169.371419,121.261471 C169.187202,121.100632 169.168336,120.820801 169.329249,120.63643 C169.490162,120.452059 169.769818,120.432967 169.954035,120.593695 L171.543189,121.979974 L173.810397,119.450617 C173.97353,119.268466 174.254295,119.253148 174.436293,119.41654 C174.618291,119.579821 174.633828,119.859874 174.470695,120.042025 L171.619762,123.221953 L169.371419,121.261471 Z" id="Fill-54-Copy-2" fill="#F3F3F3"></path>
                <path d="M182.93525,112.08558 C181.907627,112.08558 181.074209,111.25197 181.074209,110.224443 L181.074209,105.051732 C181.074209,104.023761 181.907627,103.190373 182.93525,103.190373 L188.10666,103.190373 C189.134283,103.190373 189.967701,104.023761 189.967701,105.051732 L189.967701,110.224443 C189.967701,111.25197 189.134283,112.08558 188.10666,112.08558 L182.93525,112.08558 Z" id="Fill-53-Copy-2" fill="#78C2FF"></path>
                <path d="M182.990738,107.636922 C182.80652,107.476083 182.787654,107.196252 182.948567,107.011881 C183.10948,106.82751 183.389136,106.808418 183.573354,106.969146 L185.162508,108.355425 L187.429716,105.826068 C187.592848,105.643917 187.873613,105.628599 188.055611,105.791991 C188.237609,105.955272 188.253146,106.235325 188.090013,106.417476 L185.23908,109.597404 L182.990738,107.636922 Z" id="Fill-54-Copy" fill="#F3F3F3"></path>
                <g id="Group-57" transform="translate(42.836136, 115.218000)">
                    <mask id="mask-15" fill="white">
                        <use xlink:href="#path-14"></use>
                    </mask>
                    <g id="Clip-56"></g>
                    <path d="M22.2994272,0.17649 C20.2000126,-0.82806 18.1104748,5.85747 18.1104748,5.85747 C14.5420914,10.57386 9.55512178,4.29903 10.0427435,11.34975 C10.896026,23.68629 -4.15455035,15.2292 2.78889881,28.10964 C9.73234797,40.99008 -3.34210643,35.39235 0.972912971,45.77862 C5.28793237,56.16378 -0.304846804,68.55138 6.18771318,63.46092 C6.18771318,63.46092 11.9044508,50.92125 17.8000792,47.0418 C23.6958187,43.16235 14.2680955,38.55918 16.1127128,33.29001 C18.7919688,25.63656 25.2473524,25.93626 20.5927512,17.71227 C15.9383719,9.48717 29.4364158,3.58974 22.2994272,0.17649" id="Fill-55" fill="url(#linearGradient-16)" mask="url(#mask-15)"></path>
                </g>
                <path d="M46.9678259,173.9592 C49.7822488,171.98007 53.0758594,158.18388 53.2723952,149.96655 C53.373049,145.75743 54.6169616,144.00474 55.7144988,142.4574 C56.7635403,140.97777 57.6695357,139.70127 57.1417412,136.76865 C56.1332054,131.16315 58.7849398,128.74446 58.8117956,128.72115 L58.5048403,128.37039 C58.3868745,128.47362 55.6252754,130.9689 56.6836387,136.85079 C57.1768091,139.59138 56.3639213,140.7369 55.3348553,142.18767 C54.2549629,143.71059 52.9110624,145.60425 52.8070793,149.95545 C52.5961169,158.7744 49.2288193,171.80025 46.7001555,173.57847 L46.9678259,173.9592" id="Fill-58" fill="#FFFFFF"></path>
                <g id="Group-61" transform="translate(27.299714, 147.297000)">
                    <mask id="mask-18" fill="white">
                        <use xlink:href="#path-17"></use>
                    </mask>
                    <g id="Clip-60"></g>
                    <path d="M5.01959616,1.33755 C3.35275997,0.42735 1.56507262,0.2442 0.86182755,0.91131 C0.327263642,1.41747 0.579397584,2.28549 0.88502121,2.92485 C1.46808095,4.14474 2.20550615,4.89732 2.85614933,5.5611 C3.76070204,6.48351 4.47515552,7.21278 4.11293493,8.62914 C4.04180031,8.90664 3.95990117,9.18747 3.87755813,9.4683 C3.3027105,11.43522 2.75960156,13.29336 5.76978341,14.64645 C6.47669064,14.96502 7.12467043,15.21921 7.69641078,15.44343 C10.0780334,16.37805 11.65154,16.99632 13.3382407,20.5572 C13.6521874,21.21987 13.9281808,21.84591 14.1950744,22.45086 C15.6509481,25.75089 16.5298657,27.74334 19.7128348,27.09954 C20.6251557,26.91528 21.2196458,26.44464 21.479659,25.70094 C22.148169,23.78841 20.5485834,20.44065 19.1363226,18.759 C19.0328944,18.63468 16.6049954,15.67431 16.871778,11.43744 C16.91528,10.74813 16.9861927,10.11432 17.0488932,9.55488 C17.2148,8.07303 17.3347634,7.00299 16.7852179,6.38583 C16.2828366,5.82084 15.1829689,5.56443 13.219387,5.55555 C9.27613202,5.53668 7.71949346,3.90609 6.46870048,2.59629 C5.96820572,2.07237 5.53607123,1.61949 5.01959616,1.33755 Z M13.7691544,22.63845 C13.5035926,22.03683 13.2287089,21.41412 12.9175365,20.757 C11.3098497,17.36151 9.88571465,16.80318 7.52628695,15.87633 C6.9497747,15.651 6.29624619,15.39459 5.57890737,15.07158 C2.19906963,13.55199 2.85348594,11.31312 3.43099696,9.33843 C3.51167538,9.06204 3.59224283,8.78565 3.66204575,8.5137 C3.9593463,7.35153 3.38816082,6.76878 2.52366988,5.88633 C1.88112784,5.23143 1.08155695,4.41447 0.465093905,3.12576 C-0.209519755,1.71495 0.134390055,0.95904 0.541666273,0.57276 C1.39905484,-0.23976 3.37617558,-0.08991 5.24265479,0.92907 C5.82260725,1.24542 6.30001932,1.74603 6.80528597,2.2755 C7.99526496,3.52203 9.47621895,5.0727 13.2216065,5.09046 C15.3573097,5.10045 16.5269804,5.3946 17.1329009,6.07614 C17.8204985,6.8487 17.6908804,8.00532 17.5114347,9.60705 C17.449289,10.16094 17.3790422,10.78809 17.336428,11.4663 C17.0816307,15.51225 19.4695788,18.43155 19.4932164,18.46041 C20.9200148,20.15982 22.6777391,23.68518 21.9190068,25.85523 C21.600954,26.76432 20.8897188,27.33708 19.8051655,27.55575 C19.3728091,27.64344 18.9782949,27.68562 18.6151866,27.68562 C15.9958567,27.68562 15.0365936,25.51224 13.7691544,22.63845 Z" id="Fill-59" fill="url(#linearGradient-19)" mask="url(#mask-18)"></path>
                </g>
                <g id="Group-64" transform="translate(30.961871, 150.960000)">
                    <mask id="mask-21" fill="white">
                        <use xlink:href="#path-20"></use>
                    </mask>
                    <g id="Clip-63"></g>
                    <path d="M16.0927374,26.70993 L16.5574984,26.68551 C16.5346376,26.24928 15.9482487,15.95292 11.8154493,12.94038 C7.28125537,9.63369 5.85168256,6.08169 5.1709653,3.69741 C4.36862005,0.88689 0.285315302,0.13653 0.111973216,0.10545 L0.0309618705,0.56388 C0.0705797479,0.57165 4.00129464,1.29537 4.72340536,3.82506 C5.42309924,6.27594 6.89118019,9.92562 11.5412314,13.31556 C15.4969156,16.20045 16.0872996,26.60559 16.0927374,26.70993" id="Fill-62" fill="url(#linearGradient-22)" mask="url(#mask-21)"></path>
                </g>
                <g id="Group-67" transform="translate(34.180129, 125.652000)">
                    <mask id="mask-24" fill="white">
                        <use xlink:href="#path-23"></use>
                    </mask>
                    <g id="Clip-66"></g>
                    <path d="M3.42511531,0.13209 C6.36260891,-0.87579 5.75236043,4.78743 6.99360961,8.97768 C8.23474782,13.16793 20.801827,10.80585 15.5267677,21.29757 C10.2517084,31.78929 22.1981075,24.80628 18.6297242,33.96267 C15.0613409,43.11795 18.3194397,52.91037 14.4406608,50.41953 C10.5619929,47.92869 12.2615666,36.39912 8.22775643,35.02938 C4.1938353,33.65964 3.53553489,32.06124 7.52961618,28.33719 C11.5235865,24.61203 -2.93605093,20.91462 0.632332395,13.39437 C4.20082669,5.87412 0.0312947939,1.29537 3.42511531,0.13209" id="Fill-65" fill="url(#linearGradient-25)" mask="url(#mask-24)"></path>
                </g>
                <path d="M46.8211177,175.63308 C47.1904406,174.06576 50.3453332,160.27179 47.401736,158.60457 C44.8072644,157.13493 44.8711857,151.41954 45.2759095,146.02161 C45.634135,141.24417 39.4993566,139.01085 39.2380118,138.91761 L39.0823147,139.35717 C39.1430177,139.37826 45.143295,141.56385 44.8117034,145.9872 C44.3961041,151.52943 44.3514924,157.41132 47.1723518,159.00972 C49.4077101,160.27623 47.349689,171.3618 46.368009,175.52652 L46.8211177,175.63308" id="Fill-68" fill="#FFFFFF"></path>
                <g id="Group-71" transform="translate(40.061775, 170.718000)">
                    <mask id="mask-27" fill="white">
                        <use xlink:href="#path-26"></use>
                    </mask>
                    <g id="Clip-70"></g>
                    <polyline id="Fill-69" fill="url(#linearGradient-28)" mask="url(#mask-27)" points="17.8422495 0.00333 13.6483033 15.91851 4.27573444 15.91851 0.081788167 0.00333 17.8422495 0.00333"></polyline>
                </g>
                <g id="Group-74" transform="translate(40.061775, 170.718000)">
                    <mask id="mask-30" fill="white">
                        <use xlink:href="#path-29"></use>
                    </mask>
                    <g id="Clip-73"></g>
                    <path d="M17.8422495,0.00333 C17.8422495,0.00333 8.60939755,1.73715 8.60939755,15.91851 L4.27573444,15.91851 L0.081788167,0.00333 L17.8422495,0.00333" id="Fill-72" fill="url(#linearGradient-31)" mask="url(#mask-30)"></path>
                </g>
                <path d="M131.356013,160.15968 C131.356013,160.15968 131.678949,160.68804 131.720009,161.11983 C131.751082,161.46171 132.038506,161.97231 132.162797,162.25425 C132.287089,162.53619 132.687707,163.81269 132.702133,164.14458 C132.707682,164.28111 132.404722,165.13692 132.448002,165.41109 C132.491282,165.68526 132.647756,166.22694 132.401392,166.26357 C132.156139,166.29909 131.877593,165.85509 131.877593,165.85509 C131.877593,165.85509 131.900898,166.10706 131.692266,166.20252 C131.288319,166.39011 131.074138,166.22583 131.074138,166.22583 C131.074138,166.22583 130.924323,166.50222 130.736776,166.53996 C130.323951,166.6221 130.121977,166.45671 130.121977,166.45671 C130.121977,166.45671 129.939979,166.61211 129.654775,166.60656 C129.289669,166.5999 129.136524,166.28466 129.136524,166.28466 C129.136524,166.28466 128.673761,166.3779 128.539482,166.16256 C128.406312,165.94611 128.429617,165.71634 128.37413,165.52098 C128.317533,165.32562 128.359703,163.56072 128.960075,162.28866 C129.559337,161.01771 128.80693,159.77895 128.80693,159.77895 L131.356013,160.15968" id="Fill-75" fill="#763F25"></path>
                <path d="M131.941958,165.6897 C131.941958,165.6897 131.983019,164.10573 131.566865,163.76829 C131.149601,163.43085 131.101882,164.0025 131.101882,164.0025 C131.101882,164.0025 131.158479,163.43751 130.703483,163.36092 C130.248488,163.28544 130.228513,163.95588 130.228513,163.95588 C130.228513,163.95588 130.15416,163.52076 129.67586,163.60956 C129.19756,163.69947 129.311864,164.25558 129.311864,164.25558 C129.311864,164.25558 128.854649,163.71057 128.558347,164.23449 C128.057853,165.11805 128.539482,166.16256 128.539482,166.16256 C128.539482,166.16256 128.681529,166.40121 129.136524,166.28466 C129.136524,166.28466 129.440594,166.89849 130.121977,166.45671 C130.121977,166.45671 130.820007,166.84077 131.074138,166.22583 C131.074138,166.22583 131.842081,166.59102 131.941958,165.6897" id="Fill-76" fill="#763F25"></path>
                <path d="M136.728286,137.34252 C136.728286,137.34252 134.01718,146.38014 133.101641,149.71347 C132.814217,150.75909 132.119517,160.74243 131.996336,161.14425 C131.873154,161.54718 128.435166,162.09774 128.435166,162.09774 C128.435166,162.09774 128.85132,149.60802 128.890161,148.92648 C128.929002,148.24494 132.684377,134.29779 133.776366,133.7994 C134.594247,133.42755 135.027048,133.73502 136.058,134.50092 C137.503997,135.5754 136.728286,137.34252 136.728286,137.34252" id="Fill-77" fill="#323657"></path>
                <polyline id="Fill-78" fill="#4DA8F2" points="163.466469 125.14473 163.164619 124.68408 169.3692 120.62148 169.67105 121.08213 163.466469 125.14473"></polyline>
                <path d="M170.332458,122.95692 C170.332458,122.95692 170.273642,123.30879 170.172655,123.44865 C170.172655,123.44865 169.969572,123.69174 169.835293,123.87267 C169.793122,123.93039 169.757611,123.98145 169.738745,124.01697 C169.656624,124.1646 169.521235,124.51314 169.226043,124.81284 C168.930851,125.11365 167.778936,126.06603 167.778936,126.06603 L166.793483,125.22909 L165.769189,124.77066 C165.769189,124.77066 166.342927,122.2776 166.585961,121.9668 C166.609266,121.93572 166.63479,121.90686 166.659204,121.88133 C166.891141,121.63824 167.165247,121.55388 167.301746,121.44066 C167.351685,121.39848 167.877703,121.01886 168.06636,121.0677 C168.32604,121.13541 168.480295,121.28859 168.539111,121.46286 C168.539111,121.46286 169.044045,121.61826 169.24047,121.91352 C169.24047,121.91352 169.709892,122.04228 169.849719,122.47962 C169.849719,122.47962 170.312483,122.66388 170.332458,122.95692" id="Fill-79" fill="#763F25"></path>
                <path d="M134.528773,199.0452 C134.528773,199.0452 134.2813,200.76126 134.250227,201.01878 C134.220264,201.2763 131.50139,200.86671 131.50139,200.86671 L131.28166,198.82431 C131.28166,198.82431 134.189191,198.80322 134.528773,199.0452" id="Fill-80" fill="#424773"></path>
                <path d="M134.27908,200.80011 C134.27908,200.80011 135.140242,201.83463 135.97366,202.28529 C136.807078,202.73595 138.115467,202.91355 138.608193,203.38086 C138.963311,203.71719 139.903265,205.16685 136.443082,205.13688 C132.984008,205.10802 131.316062,205.34223 130.945408,204.78612 C130.574753,204.23001 131.482524,200.68467 131.482524,200.68467 C131.482524,200.68467 132.301515,200.97882 134.27908,200.80011" id="Fill-81" fill="#292C47"></path>
                <path d="M154.003678,199.0452 C154.003678,199.0452 153.756205,200.76126 153.725132,201.01878 C153.694059,201.2763 150.976295,200.86671 150.976295,200.86671 L150.756566,198.82431 C150.756566,198.82431 153.662987,198.80322 154.003678,199.0452" id="Fill-82" fill="#424773"></path>
                <path d="M153.753986,200.80011 C153.753986,200.80011 154.615147,201.83463 155.448565,202.28529 C156.280874,202.73595 159.345988,203.10558 159.838715,203.57178 C160.193833,203.90922 160.785327,205.26453 155.917987,205.13688 C152.460024,205.04697 150.790968,205.34223 150.420313,204.78612 C150.049659,204.23001 150.95632,200.68467 150.95632,200.68467 C150.95632,200.68467 151.728702,200.9988 153.753986,200.80011" id="Fill-83" fill="#292C47"></path>
                <path d="M136.779334,154.96266 C136.779334,154.96266 134.225812,159.02193 134.415579,162.69048 C134.606455,166.35903 133.490052,170.36391 133.10608,174.19674 C132.678829,178.46913 130.928762,188.58345 130.864396,190.86894 C130.801141,193.15443 131.136284,200.45157 131.136284,200.45157 L134.639747,200.53149 C134.639747,200.53149 137.582789,182.84919 138.345184,181.04544 C139.107578,179.24058 142.886258,166.3779 143.013879,164.9349 C143.14039,163.4919 136.779334,154.96266 136.779334,154.96266" id="Fill-84" fill="#292C47"></path>
                <path d="M150.222779,155.51322 C150.222779,155.51322 152.148185,165.5676 152.402317,167.81313 C152.656448,170.05866 152.82513,178.68003 152.95275,180.08307 C153.079261,181.48611 154.139067,198.40473 154.476429,200.53149 L149.997501,200.53149 C149.997501,200.53149 146.559512,188.20272 146.559512,182.36856 C146.559512,176.5344 143.902784,169.6857 142.188229,165.83733 C140.473674,161.98785 136.548507,161.89683 135.49425,154.75509 C135.49425,154.75509 148.796757,153.24771 150.222779,155.51322" id="Fill-85" fill="#292C47"></path>
                <path d="M141.040753,120.84126 C141.040753,120.84126 144.468754,119.56143 146.04903,122.17104 C147.630416,124.78065 147.477271,130.00653 145.749399,130.64922 C144.021527,131.2908 141.426944,130.95558 140.541368,129.32166 C139.656902,127.68885 138.858995,125.32788 138.896727,123.75057 C138.935568,122.17215 140.14075,121.29747 141.040753,120.84126" id="Fill-86" fill="#763F25"></path>
                <path d="M145.377634,130.76799 C145.377634,130.76799 145.235587,131.69373 145.470853,132.14994 C145.706119,132.60615 141.029656,132.61725 141.029656,132.61725 C141.029656,132.61725 140.650123,130.13751 139.929899,128.04183 C139.210784,125.94615 145.377634,130.76799 145.377634,130.76799" id="Fill-87" fill="#763F25"></path>
                <path d="M139.929899,128.04183 C139.929899,128.04183 140.252835,128.57463 141.571211,128.36817 C142.888478,128.1606 144.495388,126.40791 145.045821,126.21477 C145.596254,126.02274 145.601803,125.69973 145.601803,125.69973 L145.945824,126.20256 L146.529549,126.23919 C146.529549,126.23919 145.996872,124.67076 146.801437,124.0314 C147.604892,123.39204 145.966909,118.95426 141.741002,120.43167 C141.741002,120.43167 138.496109,121.32633 138.613742,123.17337 C138.731375,125.0193 139.204126,127.12275 139.929899,128.04183" id="Fill-88" fill="#391903"></path>
                <path d="M145.748289,132.09555 C145.748289,132.09555 145.733862,131.2242 145.338793,131.13984 C144.943724,131.05659 140.980827,130.67586 140.495869,130.86567 L140.495869,131.88132 C140.495869,131.88132 141.430273,132.4563 145.748289,132.09555" id="Fill-89" fill="#E2D2CA"></path>
                <path d="M145.514133,125.02818 C145.43978,124.71849 144.652971,123.83271 144.351121,124.78065 C144.05038,125.72859 144.807226,127.00287 145.228929,126.89409 C145.651741,126.7842 145.70168,125.81295 145.514133,125.02818" id="Fill-90" fill="#833F1D"></path>
                <path d="M152.30355,133.41423 C149.586895,133.0557 145.748289,132.09444 145.748289,132.09444 L140.495869,131.88132 C140.495869,131.88132 135.675139,132.94248 133.776366,133.7994 C133.596587,133.88154 133.595477,138.10176 133.101641,139.20843 L134.675259,142.52955 C134.675259,142.52955 135.585249,149.10963 135.773906,152.03559 C135.860466,153.37869 133.898438,164.63187 133.898438,164.63187 C133.898438,164.63187 136.000294,165.25125 139.584768,165.64641 C143.170353,166.04157 152.1271,165.50322 152.183697,165.0792 C152.240294,164.65629 150.449167,149.30943 150.369265,148.51578 C150.248303,147.29589 150.789858,140.81349 150.789858,140.81349 C151.617728,140.17191 158.885444,136.79751 160.867448,135.03927 C161.397906,134.56863 163.63737,132.38748 164.274363,131.6349 C166.528254,128.96868 168.375979,126.68097 168.601257,126.18813 C168.856498,125.9073 166.094344,124.41768 165.849091,124.33665 C165.6338,124.2645 162.644149,128.23275 161.472258,129.5037 C160.948459,130.0698 158.77447,131.65155 158.77447,131.65155 C158.77447,131.65155 154.003678,133.51191 152.30355,133.41423" id="Fill-91" fill="#323657"></path>
                <path d="M140.064178,121.14984 C140.064178,121.14984 135.694004,121.49172 139.929899,128.04183 L140.064178,121.14984" id="Fill-92" fill="#391903"></path>
                <polyline id="Fill-93" fill="#DFE1E8" points="169.67105 121.08213 170.029498 120.5349 169.3692 120.62148 169.67105 121.08213"></polyline>
                <path d="M82.1619289,152.52954 C82.1619289,152.52954 84.2883103,152.6583 84.8839101,152.99019 C85.4796209,153.32097 89.5001141,152.05335 89.574578,151.76142 C89.6490419,151.46949 89.574578,151.32519 89.574578,151.32519 L81.6824083,151.32519 L82.1619289,152.52954" id="Fill-94" fill="#8B572A"></path>
                <path d="M72.6163509,143.15115 C72.6163509,143.15115 71.9379641,148.48248 72.6163509,149.18067 C75.2074933,151.85022 84.8112218,151.63821 84.8112218,151.63821 L84.8074487,152.72379 C84.8074487,152.72379 70.2094261,154.5453 68.8530965,151.71258 C67.2233257,148.31043 67.8557691,142.76043 67.8557691,142.76043 L72.6163509,143.15115" id="Fill-95" fill="#8B572A"></path>
                <polyline id="Fill-96" fill="#2F4563" points="67.7985063 199.33491 68.6656606 198.3459 67.1001441 196.70865 65.7778836 197.63439 67.7985063 199.33491"></polyline>
                <path d="M65.7778836,197.63439 C65.7778836,197.63439 67.5645722,198.98082 68.0616267,199.0341 C68.5584593,199.08849 68.7930593,199.31049 68.7339099,200.06751 C68.6747605,200.82453 69.4601267,204.01467 70.0072307,204.06573 C70.5543347,204.11679 72.4169298,204.12678 72.754958,205.35555 C73.0929862,206.58321 66.8454578,206.32569 66.4584899,205.31892 C66.071522,204.31104 63.3818343,199.42815 63.7004419,199.03521 C64.0191606,198.64227 64.8610127,197.75982 65.7778836,197.63439" id="Fill-97" fill="#1E2D40"></path>
                <path d="M77.2425427,159.47481 C77.2425427,159.47481 88.9151678,179.81334 84.1768919,184.02135 C82.3188468,185.67081 80.5301606,187.16376 77.9591047,189.37155 C76.5923434,190.54593 74.9422643,191.90568 72.9861178,193.94253 L72.9047735,194.028 C71.5097137,195.4821 70.3583539,196.71198 70.0035685,197.0916 C69.9908065,197.10381 69.979709,197.11602 69.9700543,197.12712 L69.9304364,197.1693 L68.6312585,198.40917 L66.7250505,196.73307 C66.7250505,196.73307 68.8857229,193.74273 70.1042224,191.44614 C71.8143386,188.2227 74.687578,184.43316 76.0168299,183.37533 C78.2941365,181.56492 78.9200324,181.20972 78.9200324,179.47812 C78.9200324,177.62109 68.221208,167.24703 68.221208,167.24703 C68.221208,167.24703 66.6691194,160.75353 70.3767756,159.05523 C73.9894377,157.39911 77.2425427,159.47481 77.2425427,159.47481" id="Fill-98" fill="#23344A"></path>
                <path d="M68.3408384,202.48509 C68.3408384,202.48509 68.2671514,201.54825 68.425179,200.94885 C68.5833176,200.35056 66.0087104,200.69466 66.0087104,200.69466 C66.0087104,200.69466 65.6772298,203.19549 65.7731117,203.76825 C65.8687716,204.34101 68.3408384,202.48509 68.3408384,202.48509" id="Fill-99" fill="#41608A"></path>
                <path d="M68.8216907,200.95218 L65.3497442,201.57822 C65.3497442,201.57822 65.0994968,197.1471 65.1445524,193.75272 C65.1931592,190.10304 65.0096075,187.2348 66.1237909,184.32993 C67.1660629,181.61265 66.9290215,180.57813 67.0199096,178.72332 C67.1115745,176.86851 66.1297835,167.31807 66.1297835,167.31807 C66.1297835,167.31807 64.9439106,163.04235 67.6893074,160.02537 C70.3640135,157.08609 77.2839361,160.01316 77.2839361,160.01316 C77.2839361,160.01316 75.842489,173.0601 72.381418,181.13091 C71.4017356,183.41529 71.9314166,184.80279 70.6820663,188.33148 C70.6820663,188.33148 68.7845143,196.02822 68.8216907,200.95218" id="Fill-100" fill="#2F4563"></path>
                <path d="M71.8440797,134.21565 C71.6621926,134.52312 71.5292452,134.91606 71.4325865,135.33231 C71.3405887,135.72636 71.2808844,136.1415 71.2421543,136.52445 C71.1579247,137.35584 71.1722404,138.04071 71.1722404,138.04071 C71.1722404,138.04071 66.5409439,137.03283 67.3010079,135.9528 C68.0606279,134.87166 67.6136229,131.59827 67.6136229,131.59827 C67.6136229,131.59827 72.4436747,133.20555 71.8440797,134.21565" id="Fill-101" fill="#8B572A"></path>
                <path d="M74.4497597,125.29347 C74.4497597,125.29347 75.6351888,126.32244 75.1052858,129.28947 C75.1052858,129.28947 75.3674074,131.65266 75.7290732,132.06447 C76.0908499,132.47739 74.7580467,132.62946 74.617886,132.92583 C74.4776143,133.22331 74.2124964,134.61192 73.2833073,135.44886 C72.3542293,136.28691 67.7540055,133.76277 67.5300591,132.33642 C67.3060017,130.91118 64.1184827,124.79952 69.163603,124.5198 C74.2088342,124.24008 74.4497597,125.29347 74.4497597,125.29347" id="Fill-102" fill="#8B572A"></path>
                <path d="M77.6237399,147.18378 C77.5297445,147.48126 77.8833091,152.04558 77.8511265,152.43963 C77.6745662,154.59858 78.2319908,157.87974 78.4514983,159.05523 C78.5036563,159.33273 78.5327316,159.47481 78.5327316,159.47481 C73.5320011,161.92125 66.5764557,161.70702 66.5764557,161.70702 C66.601203,161.51721 67.5722294,159.16734 67.5970877,158.98752 C68.0088029,156.05046 68.6169428,154.70958 68.4514799,152.72379 L68.4520348,152.72379 C68.3597041,151.60824 68.0758314,150.44163 67.4878888,148.99641 C65.7895359,144.82281 65.8818666,142.04448 66.1588589,139.75122 C66.4351852,137.45796 67.1226719,136.15038 67.1226719,136.15038 L71.3474691,136.60437 C72.2442536,137.59782 73.0422708,138.12729 75.5910209,140.39058 C78.3027925,142.79928 78.7770973,143.52966 77.6237399,147.18378" id="Fill-103" fill="#EB4747"></path>
                <path d="M65.6176365,203.1189 C65.6176365,203.1189 68.0612938,202.42404 68.1337601,202.35522 C68.2062264,202.28751 68.2226506,202.13988 68.559791,202.27419 C68.8969314,202.40961 69.0363153,202.92021 69.3671301,203.08227 C69.6980559,203.24433 71.7145726,203.83374 72.8194341,204.37764 C73.2187202,204.57411 74.9081952,205.21791 75.1516731,205.75626 C75.395262,206.29461 75.3195774,207.1038 72.4167079,206.91177 C69.5138383,206.71974 66.3383045,207.12933 65.7026429,206.81187 C65.0669813,206.49441 65.4511748,203.95917 65.6176365,203.1189" id="Fill-104" fill="#23344A"></path>
                <path d="M75.2314637,128.22276 C75.2314637,128.22276 75.7987651,122.06226 69.8270082,123.16227 C63.8551403,124.26228 66.9334605,130.99554 67.7380252,133.19001 C67.7380252,133.19001 67.6403677,129.78231 70.5156046,129.67131 C73.3907306,129.56031 73.9849988,128.89431 75.2314637,128.22276" id="Fill-105" fill="#464240"></path>
                <path d="M70.0484022,128.80551 C69.688956,128.18058 68.4559189,128.51358 68.5968565,129.46707 C68.737683,130.41945 69.7257995,131.37072 70.0532851,130.91007 C70.3808817,130.44831 70.5763077,129.72459 70.0484022,128.80551" id="Fill-106" fill="#9B7755"></path>
                <path d="M70.1844569,140.90895 C70.1844569,140.90895 69.6922852,146.187 70.3704501,146.88519 C72.9617034,149.55474 83.1857791,149.6058 83.1857791,149.6058 L83.6740667,151.13982 C83.6740667,151.13982 68.4765602,152.17545 67.1203415,149.34384 C65.4905707,145.94058 66.1230141,140.39058 66.1230141,140.39058 L70.1844569,140.90895" id="Fill-107" fill="#8B572A"></path>
                <path d="M67.934228,124.67853 C67.934228,124.67853 65.6345046,122.47185 63.9994071,124.97157 C62.3644206,127.47129 65.9416819,130.9578 67.3918959,128.88876 C68.842221,126.81861 67.934228,124.67853 67.934228,124.67853" id="Fill-108" fill="#464240"></path>
                <path d="M71.4325865,135.33231 C71.3405887,135.72636 71.2808844,136.1415 71.2421543,136.52445 C69.7034936,135.82293 68.5529106,133.67952 68.5529106,133.67952 C69.667094,134.64078 71.4321426,135.33231 71.4321426,135.33231 C71.4321426,135.33231 71.4321426,135.33231 71.4325865,135.33231" id="Fill-109" fill="#A77860"></path>
                <polygon id="Fill-110" fill="#6E6760" points="78.9213641 151.95012 93.4160694 151.95012 93.4160694 151.13982 78.9213641 151.13982"></polygon>
                <polyline id="Fill-111" fill="#6E6760" points="99.945362 139.00641 93.4157365 151.95012 92.6934038 151.58493 99.2229183 138.64122 99.945362 139.00641"></polyline>
                <path d="M81.0512966,149.6058 C81.0512966,149.6058 83.177678,149.44263 83.7733888,149.02083 C84.3689887,148.59903 88.3894819,150.21186 88.4639457,150.58482 C88.5384096,150.95667 88.4639457,151.13982 88.4639457,151.13982 L80.571776,151.13982 L81.0512966,149.6058" id="Fill-112" fill="#8B572A"></path>
                <polyline id="Fill-113" fill="#EB4747" points="67.1227829 136.15038 67.4201944 135.3423 71.478086 136.15038 71.478086 136.86966 67.1227829 136.15038"></polyline>
                <path d="M70.1781313,140.97888 C70.1781313,140.97888 70.6135951,137.91972 68.4843284,137.6511 C66.3551726,137.38248 66.1216824,140.40168 66.1216824,140.40168 L70.1781313,140.97888" id="Fill-114" fill="#8B572A"></path>
                <path d="M208.886091,198.64782 C208.886091,198.64782 209.132454,200.37942 209.163527,200.63916 C209.1946,200.8989 211.912364,200.48598 211.912364,200.48598 L212.132093,198.42471 C212.132093,198.42471 209.225672,198.40362 208.886091,198.64782" id="Fill-115" fill="#5C544D"></path>
                <path d="M209.134673,200.41938 C209.134673,200.41938 208.273512,201.46278 207.441203,201.91788 C206.608895,202.37187 205.299396,202.5528 204.80778,203.02344 C204.451552,203.3631 203.512708,204.82608 206.971781,204.79611 C210.429745,204.76725 212.097691,205.00368 212.468346,204.44202 C212.839,203.88147 211.932339,200.30172 211.932339,200.30172 C211.932339,200.30172 211.113348,200.5992 209.134673,200.41938" id="Fill-116" fill="#3C4145"></path>
                <path d="M189.414514,198.64782 C189.414514,198.64782 189.661987,200.37942 189.69195,200.63916 C189.723023,200.8989 192.440787,200.48598 192.440787,200.48598 L192.660517,198.42471 C192.660517,198.42471 189.754096,198.40362 189.414514,198.64782" id="Fill-117" fill="#5C544D"></path>
                <path d="M189.664207,200.41938 C189.664207,200.41938 188.803045,201.46278 187.969627,201.91788 C187.137319,202.37187 184.072204,202.74594 183.580588,203.21658 C183.22436,203.55624 182.633976,204.92487 187.500205,204.79611 C190.957059,204.7062 192.626115,205.00368 192.996769,204.44202 C193.367424,203.88147 192.460763,200.30172 192.460763,200.30172 C192.460763,200.30172 191.688381,200.61918 189.664207,200.41938" id="Fill-118" fill="#3C4145"></path>
                <path d="M207.920613,153.94035 C207.920613,153.94035 209.36661,158.23716 209.176844,161.94012 C208.985968,165.64419 209.924811,169.69569 210.307673,173.56404 C210.736035,177.8775 212.486102,188.08728 212.549357,190.39386 C212.612613,192.70044 212.27747,200.0664 212.27747,200.0664 L208.774006,200.14743 C208.774006,200.14743 205.832074,182.29863 205.070789,180.47712 C204.308395,178.65672 200.529715,165.67194 200.402094,164.21562 C200.275583,162.75819 207.920613,153.94035 207.920613,153.94035" id="Fill-119" fill="#33373B"></path>
                <path d="M193.194304,154.70514 C193.194304,154.70514 191.270007,164.85498 191.015876,167.1216 C190.761744,169.38822 190.591953,178.08951 190.465442,179.50587 C190.337822,180.92334 189.618707,198.04287 188.941763,200.14743 L193.419582,200.14743 C193.419582,200.14743 196.85757,187.70211 196.85757,181.81356 C196.85757,175.92501 199.513189,169.01193 201.227744,165.12582 C202.942299,161.24082 206.866356,161.14869 207.920613,153.94035 C207.920613,153.94035 194.620326,152.41854 193.194304,154.70514" id="Fill-120" fill="#3C4145"></path>
                <path d="M197.137226,121.38627 C195.509231,124.07469 195.666815,129.45597 197.445735,130.11753 C199.225765,130.77909 201.899139,130.43277 202.80913,128.75112 C203.72023,127.06947 204.543661,124.63746 204.50371,123.01242 C204.463759,121.38738 203.221955,120.48606 202.295318,120.01764 C202.295318,120.01764 198.765221,118.69896 197.137226,121.38627 Z" id="Fill-121" fill="#763F25"></path>
                <path d="M198.038338,129.95214 C198.038338,129.95214 198.181496,130.87788 197.94512,131.33409 C197.709854,131.78919 202.386317,131.8014 202.386317,131.8014 C202.386317,131.8014 202.76585,129.32166 203.484964,127.22598 C204.205188,125.1303 198.038338,129.95214 198.038338,129.95214" id="Fill-122" fill="#763F25"></path>
                <path d="M203.484964,127.22598 C203.484964,127.22598 203.162029,127.75878 201.844762,127.55232 C200.527495,127.34586 198.920585,125.59206 198.370152,125.40003 C197.820829,125.20689 197.81528,124.88388 197.81528,124.88388 L197.471259,125.38671 L196.886424,125.42445 C196.886424,125.42445 197.419101,123.85602 196.615646,123.21666 C195.812191,122.5773 197.450174,118.14063 201.674971,119.61693 C201.674971,119.61693 204.919864,120.51159 204.802231,122.35752 C204.683488,124.20345 204.211847,126.3069 203.484964,127.22598 L211.641607,115.407942" id="Fill-123" fill="#000000"></path>
                <path d="M197.667684,131.27859 C197.667684,131.27859 197.68322,130.40724 198.07718,130.32399 C198.472249,130.24074 202.435146,129.8589 202.920104,130.04982 L202.920104,131.06436 C202.920104,131.06436 201.9857,131.63934 197.667684,131.27859" id="Fill-124" fill="#E2D2CA"></path>
                <path d="M197.90295,124.21233 C197.976193,123.90264 198.763002,123.01797 199.064852,123.96591 C199.366703,124.91274 198.609857,126.18702 198.187044,126.07824 C197.765341,125.96946 197.715403,124.9971 197.90295,124.21233" id="Fill-125" fill="#5C3624"></path>
                <path d="M197.667684,131.27859 C197.667684,131.27859 195.495914,132.06003 192.979013,133.12896 C192.979013,133.12896 190.0848,134.2101 189.771852,137.40801 C189.60539,139.1052 187.798726,148.11285 187.459144,148.87431 C187.120672,149.63688 183.114495,161.88018 182.973557,162.13437 C182.83262,162.38856 186.242865,163.80492 186.469252,163.6917 C186.694531,163.57848 190.347809,152.5251 190.715135,151.70592 C190.715135,151.70592 192.818101,145.07811 192.874697,144.0891 C192.874697,144.0891 192.934624,146.90628 193.047818,147.6966 C193.159902,148.48692 191.177898,163.83489 191.233385,164.2578 C191.289982,164.68182 200.24562,165.21906 203.830095,164.8239 C207.414569,164.42874 210.306564,163.60401 210.306564,163.60401 C210.306564,163.60401 207.486703,151.49169 207.573263,150.14859 C207.761919,147.22263 208.739604,141.71148 208.739604,141.71148 L211.661561,147.22263 L207.920613,156.84966 L208.777336,159.77562 C208.777336,159.77562 215.728775,149.26836 215.955163,148.30821 C216.180441,147.34806 215.614471,146.12595 215.247146,145.33563 C214.87982,144.54531 212.470565,138.52911 211.905705,137.68218 C211.341955,136.83525 210.387575,133.4442 208.082636,132.5007 C206.155009,131.71149 202.920104,131.06436 202.920104,131.06436 L197.667684,131.27859" id="Fill-126" fill="#EB4747"></path>
                <polyline id="Fill-127" fill="#D6D6D6" points="192.888014 167.68326 176.511515 163.48302 179.441241 152.05557 195.81774 156.25581 192.888014 167.68326"></polyline>
                <path d="M181.547536,164.63298 C181.547536,164.63298 181.079224,165.39 180.908323,165.60534 C180.737422,165.82068 181.328916,165.9561 181.581938,165.73854 C181.83496,165.51987 181.547536,164.63298 181.547536,164.63298" id="Fill-128" fill="#C98462"></path>
                <path d="M184.95778,167.21706 C184.95778,167.21706 185.234107,166.92846 185.294033,166.74309 C185.294033,166.74309 185.376154,166.39899 185.449397,166.15701 C185.472702,166.08042 185.494897,166.01382 185.513762,165.97275 C185.592554,165.79959 185.816723,165.44439 185.888856,164.97708 C185.960989,164.51088 186.165182,162.4152 186.165182,162.4152 L184.896745,162.09552 L183.876889,161.88018 C183.876889,161.88018 181.675156,164.07687 181.557523,164.50422 C181.546426,164.5464 181.536438,164.58747 181.53089,164.62743 C181.466524,164.99928 181.57417,165.30231 181.563072,165.501 C181.558633,165.57426 181.569731,166.30242 181.739522,166.43895 C181.974787,166.62876 182.214492,166.66428 182.412027,166.60101 C182.412027,166.60101 182.889217,166.95177 183.287615,166.93068 C183.287615,166.93068 183.717086,167.26812 184.205374,167.10162 C184.205374,167.10162 184.679235,167.39466 184.95778,167.21706" id="Fill-129" fill="#763F25"></path>
                <path d="M189.90946,153.96366 C189.90946,153.96366 187.00304,162.76818 186.469252,163.6917 C186.469252,163.6917 184.337433,163.24326 182.973557,162.13437 L186.165182,152.63277 L189.90946,153.96366" id="Fill-130" fill="#EB4747"></path>
                <path d="M252.027407,164.47425 C252.027407,164.47425 251.909774,162.44739 251.372657,162.13215 C250.835541,161.81691 251.14627,162.44517 251.14627,162.44517 C251.14627,162.44517 251.44812,163.91592 251.514705,164.5131 C251.518034,164.54085 252.027407,164.47425 252.027407,164.47425" id="Fill-131" fill="#1D3B54"></path>
                <path d="M237.742776,121.83582 C237.742776,121.83582 242.783235,121.41624 242.645627,126.71982 C242.508019,132.0234 241.666832,132.82038 242.648956,136.56774 C243.62997,140.31621 237.735008,134.43987 237.735008,134.43987 L237.742776,121.83582" id="Fill-132" fill="#434343"></path>
                <path d="M233.503552,136.16592 C233.503552,136.16592 226.363456,140.62146 225.759755,140.14749 C224.91524,139.48482 222.621398,133.83159 222.621398,133.83159 L220.824722,134.6874 C220.824722,134.6874 222.967638,144.46206 225.854083,143.74278 C228.741639,143.02239 235.370142,138.92205 235.370142,138.92205 L233.503552,136.16592" id="Fill-133" fill="#7F3E1E"></path>
                <path d="M243.234901,154.60746 C243.234901,154.60746 245.091504,156.97398 245.746253,158.53908 C246.401002,160.10418 247.492991,163.53519 247.347614,166.19253 C247.202238,168.84987 246.328869,173.8371 246.583,174.96597 C246.838241,176.09373 247.092373,178.42362 247.36537,179.22393 C247.638367,180.02535 248.730356,182.35524 248.840221,184.75728 C248.948975,187.16043 247.310993,197.71653 247.384236,198.69999 C247.456369,199.68234 245.527633,199.09959 245.527633,199.09959 C245.527633,199.09959 244.872884,189.56247 244.508888,187.92411 C244.144892,186.28686 243.708762,180.71688 243.380278,180.31617 C243.052903,179.91546 242.157339,175.76628 242.296057,175.11138 C242.434775,174.45537 238.72268,164.62743 238.504061,162.66162 C238.285441,160.69581 232.812181,154.60746 232.812181,154.60746 C232.812181,154.60746 237.59407,152.77818 243.234901,154.60746" id="Fill-134" fill="#7F3E1E"></path>
                <path d="M234.376921,154.60746 C234.376921,154.60746 234.282593,155.5998 234.172728,155.96388 C234.063973,156.32685 231.552621,165.60978 231.29849,169.17732 C231.043249,172.74486 230.388499,175.77072 230.278635,176.53329 C230.16988,177.29475 230.388499,179.84331 230.606009,180.49821 C230.824629,181.15422 229.51513,196.62429 229.405266,196.98837 C229.296511,197.35245 230.278635,197.46234 230.970005,197.35245 C231.661376,197.24367 235.155962,185.99493 234.937342,184.10238 C234.718722,182.20983 234.500103,178.17276 235.11934,176.53329 C235.737468,174.89271 241.306165,163.0257 241.342787,162.29754 C241.379408,161.56938 243.752042,149.0286 234.376921,154.60746" id="Fill-135" fill="#7F3E1E"></path>
                <path d="M245.562035,197.93964 C245.562035,197.93964 245.383367,199.19616 245.186942,199.53915 C244.991627,199.88103 244.453401,201.62817 244.208147,201.95451 C243.962894,202.28085 243.424668,204.7284 244.208147,205.02255 C244.991627,205.3167 246.834912,205.80621 247.455259,204.82719 C248.075607,203.84706 248.156618,202.86804 248.05896,202.11768 C247.961303,201.36621 247.216664,197.92077 247.226652,197.58 C247.23664,197.23923 245.562035,197.93964 245.562035,197.93964" id="Fill-136" fill="#7F3E1E"></path>
                <path d="M244.521095,201.2763 C244.521095,201.2763 244.436754,203.17884 245.872764,203.17884 C247.308773,203.17884 247.944657,201.44724 247.944657,201.44724 C247.944657,201.44724 248.434054,202.2975 247.944657,204.10902 C247.455259,205.92054 245.415549,205.54536 244.958334,205.47987 C244.502229,205.41438 242.336008,204.84162 244.521095,201.2763" id="Fill-137" fill="#EB4747"></path>
                <path d="M229.56063,196.23135 C229.56063,196.23135 228.545214,198.04731 227.942623,198.41472 C227.191326,198.87315 225.734231,200.3439 225.224858,200.41272 C224.715486,200.48043 222.884407,200.80455 223.238416,201.83907 C223.528059,202.686 227.893794,202.5639 228.38652,202.13988 C228.879247,201.71475 230.351878,200.19183 230.945591,200.22513 C231.539304,200.25954 231.319575,202.42293 231.319575,202.42293 L231.964336,202.42293 C231.964336,202.42293 232.189615,200.31726 232.217358,199.9554 C232.29726,198.88425 231.533756,198.09615 231.499354,197.48565 C231.464951,196.87404 231.430549,196.41783 231.430549,196.41783 L229.56063,196.23135" id="Fill-138" fill="#EB4747"></path>
                <path d="M225.370235,200.36277 C225.370235,200.36277 226.809573,200.86005 227.917098,200.22291 C229.024623,199.58688 231.150894,198.61896 231.902191,198.6123 C231.902191,198.6123 231.492695,197.35911 231.483817,197.21814 C231.474939,197.07828 231.430549,196.41783 231.430549,196.41783 L229.571727,196.11924 C229.571727,196.11924 228.366545,197.88969 227.834977,198.30705 C227.30341,198.7233 225.942863,199.76337 225.370235,200.36277" id="Fill-139" fill="#7F3E1E"></path>
                <path d="M232.781108,154.44318 C232.781108,154.44318 232.262858,156.59991 232.070872,157.22817 C231.879996,157.85643 230.653728,167.59779 230.351878,173.69169 C230.351878,173.69169 237.693947,176.47557 247.793731,176.01159 C247.793731,176.01159 248.038985,164.81835 247.111239,161.65152 C246.183492,158.48469 244.503339,155.52099 243.234901,154.60746 C242.107401,153.79494 232.781108,154.44318 232.781108,154.44318" id="Fill-140" fill="#EB4747"></path>
                <path d="M249.543799,159.90993 C249.543799,159.90993 249.392873,160.81902 249.117657,161.69481 C248.84244,162.57171 248.589418,162.85143 248.699283,163.35315 C248.782514,163.73277 249.211985,164.01693 249.31963,163.89483 C249.428385,163.77384 249.480543,162.29976 250.090903,162.30642 C250.701262,162.31308 249.908904,164.13237 250.271791,163.99806 C250.635787,163.86486 252.034065,163.09785 251.946395,162.35526 C251.858725,161.61267 251.298304,161.07543 251.334926,159.96654 C251.367109,158.95977 251.054161,158.53908 251.054161,158.53908 L249.543799,159.90993" id="Fill-141" fill="#7F3E1E"></path>
                <path d="M220.339763,134.25228 C220.339763,134.25228 221.192047,135.36006 221.716956,135.47772 C222.241865,135.59427 222.813384,134.3433 222.813384,134.3433 L222.503765,133.21665 L220.339763,134.25228" id="Fill-142" fill="#7F3E1E"></path>
                <path d="M222.443839,133.88154 C222.443839,133.88154 222.851115,132.60393 222.907712,132.40746 C222.964309,132.20988 222.764555,131.63268 222.401668,131.08101 C222.049879,130.54599 221.607091,129.95658 221.452837,129.8034 C221.371826,129.72348 221.327436,129.63246 221.061097,129.75234 C220.795868,129.87222 220.637175,130.11975 220.637175,130.11975 C220.637175,130.11975 220.239886,130.1142 220.066766,130.43388 C220.066766,130.43388 219.692782,130.44498 219.556284,130.84125 C219.556284,130.84125 219.191178,130.86123 219.116825,131.1576 C219.116825,131.1576 219.292164,131.70261 219.299933,131.9235 C219.306591,132.14439 219.750489,133.25328 220.339763,134.25228 C220.339763,134.25228 221.216461,135.00708 222.443839,133.88154" id="Fill-143" fill="#7F3E1E"></path>
                <path d="M221.507214,132.2232 C221.507214,132.2232 221.067756,132.7338 221.016707,132.93915 C220.966769,133.1445 219.682794,132.37971 219.682794,132.37971 C219.682794,132.37971 220.87355,131.70483 221.507214,132.2232" id="Fill-144" fill="#7F3E1E"></path>
                <path d="M221.519422,129.93216 C221.519422,129.93216 222.229658,131.43732 221.992173,131.56719 C221.753578,131.69706 221.588226,131.60049 221.588226,131.60049 L221.550494,132.35529 C221.550494,132.35529 221.243095,132.84036 220.804746,132.36417 C220.804746,132.36417 220.565041,132.84813 220.195496,132.33753 C220.195496,132.33753 219.895865,132.58617 219.682794,132.37971 C219.469724,132.17325 219.116825,131.1576 219.116825,131.1576 C219.116825,131.1576 219.13791,130.90896 219.556284,130.84125 C219.556284,130.84125 219.665039,130.45386 220.066766,130.43388 C220.066766,130.43388 220.294264,130.03761 220.729284,130.01985 C220.729284,130.01985 220.977866,129.66465 221.452837,129.8034 C221.452837,129.8034 221.493897,129.86667 221.519422,129.93216" id="Fill-145" fill="#7F3E1E"></path>
                <path d="M222.893285,132.3564 C222.893285,132.3564 222.032124,131.59938 221.380704,131.39292 C221.233107,131.3463 221.082182,131.32743 220.982305,131.4462 C220.883538,131.56608 220.931257,131.86134 221.287485,132.20766 C221.643713,132.55509 221.945563,133.1667 221.945563,133.1667 C221.945563,133.1667 222.416095,133.41534 222.893285,132.3564" id="Fill-146" fill="#7F3E1E"></path>
                <path d="M220.729284,130.01985 C220.729284,130.01985 221.608201,131.58384 221.598213,131.7681 C221.588226,131.95125 222.174171,131.63823 222.171951,131.48172 C222.168622,131.3241 221.534958,129.93216 221.452837,129.8034 C221.370716,129.67464 220.886867,129.58029 220.729284,130.01985" id="Fill-147" fill="#7F3E1E"></path>
                <path d="M221.632616,130.10421 C221.632616,130.10421 220.232118,127.49016 220.025706,127.58562 C219.726075,127.72437 219.805976,128.44809 220.987854,130.39947 C222.136439,132.29646 221.632616,130.10421 221.632616,130.10421" id="Fill-148" fill="#7F3E1E"></path>
                <path d="M233.12069,141.58383 L230.237574,137.75766 C230.237574,137.75766 235.391227,133.76499 236.981491,136.30356 C236.981491,136.30356 237.094685,140.48715 233.12069,141.58383" id="Fill-149" fill="#323657"></path>
                <path d="M231.389489,141.44841 C231.4705,142.73157 232.126359,143.79606 232.235114,144.26004 C232.343869,144.72402 232.235114,145.78851 232.371613,146.85411 C232.508111,147.9186 232.917607,152.99685 232.781108,154.44318 C232.64461,155.89062 242.709992,155.23683 243.474606,154.8006 C243.474606,154.8006 241.778916,151.76808 241.733417,150.51267 C241.717881,150.08088 241.46153,148.73778 242.170656,147.75432 C242.54464,147.23595 243.23934,145.58427 243.93404,144.3777 C243.93404,144.3777 243.80531,144.12684 243.93404,144.3777 C244.202598,143.90928 244.484473,143.44197 244.680898,143.09454 C244.937249,142.64055 245.080406,142.10331 245.080406,142.10331 C245.080406,142.10331 245.527633,136.53333 244.299146,135.90618 C243.071769,135.27792 242.41591,135.16914 241.215166,135.11364 C240.014423,135.05925 239.223175,134.81394 239.223175,134.81394 L236.411083,135.11364 C236.411083,135.11364 234.609967,135.7419 233.899731,135.79629 C233.190604,135.85068 232.289492,137.38026 232.371613,138.36261 C232.453734,139.34607 231.307368,140.16525 231.389489,141.44841" id="Fill-150" fill="#323657"></path>
                <path d="M250.030976,162.24537 C250.030976,162.24537 249.217534,162.45294 249.266362,165.20352 L250.186341,165.04923 C250.186341,165.04923 250.169694,163.52964 250.444911,162.70047 C250.444911,162.70047 250.397192,162.16323 250.030976,162.24537" id="Fill-151" fill="#1D3B54"></path>
                <polyline id="Fill-152" fill="#1D3B54" points="246.655134 165.82401 253.824083 163.78938 253.802998 172.62165 246.668451 176.89848 246.655134 165.82401"></polyline>
                <polyline id="Fill-153" fill="#1D3B54" points="246.668451 176.89848 247.566234 177.06387 254.506576 172.74708 254.420016 163.83045 253.824083 163.78938 246.668451 176.89848"></polyline>
                <path d="M243.103951,135.39447 C243.103951,135.39447 245.336757,135.3867 246.346625,137.35251 C247.356492,139.31832 247.466357,141.39291 247.71161,142.13106 C247.956864,142.8681 248.599406,147.20487 248.844659,147.83313 C249.091023,148.46028 250.550337,152.72379 250.905455,155.12583 C251.259463,157.52898 251.334926,159.96654 251.334926,159.96654 L249.543799,159.90993 C249.543799,159.90993 247.764878,153.37314 247.153409,151.81692 C246.62961,150.48714 246.428746,148.16391 246.128005,147.34584 C245.828374,146.52666 243.971772,140.76576 243.590019,140.35617 C243.208267,139.94658 241.19963,135.75744 243.103951,135.39447" id="Fill-154" fill="#7F3E1E"></path>
                <path d="M243.835273,143.36094 L248.385225,141.92793 C248.385225,141.92793 246.990276,135.21576 243.103951,135.39447 C239.986679,135.53877 243.835273,143.36094 243.835273,143.36094" id="Fill-155" fill="#323657"></path>
                <path d="M233.318225,125.76189 C233.318225,125.76189 233.316005,126.67209 233.453614,127.40247 C233.590112,128.13285 232.721182,130.13973 232.874327,130.26072 C233.027472,130.38282 233.693318,130.5915 233.693318,130.5915 C233.693318,130.5915 234.166069,132.94803 234.966195,133.01907 C235.765211,133.09122 238.85585,132.81261 240.601478,130.14861 C242.345996,127.48461 243.280401,123.1989 238.236612,122.37306 C236.98704,122.16771 234.128338,122.48184 233.318225,125.76189 Z" id="Fill-156" fill="#7F3E1E"></path>
                <path d="M236.1625,132.10665 C236.1625,132.10665 236.223536,132.43521 236.281242,132.92139 C236.310096,133.16892 236.338949,133.45752 236.356705,133.76277 C236.406644,134.60859 236.381119,135.58761 236.092586,136.2081 C236.092586,136.2081 237.657326,137.17824 239.336369,134.84502 C239.336369,134.84502 239.172127,131.93349 240.135385,130.39503 C241.099753,128.85546 236.1625,132.10665 236.1625,132.10665" id="Fill-157" fill="#7F3E1E"></path>
                <path d="M233.318225,125.76189 C233.318225,125.76189 235.198132,127.38693 237.190123,127.89864 C239.182114,128.41146 240.236372,130.64922 240.236372,130.64922 C240.236372,130.64922 243.75981,127.13274 241.63354,123.7206 C239.50727,120.30846 233.321554,121.83027 233.318225,125.76189" id="Fill-158" fill="#434343"></path>
                <path d="M236.281242,132.92139 C236.310096,133.16892 236.338949,133.45752 236.356705,133.76277 C238.113431,132.91029 239.081128,131.74146 239.081128,131.74146 C238.049065,132.48183 236.281242,132.92139 236.281242,132.92139" id="Fill-159" fill="#A77860"></path>
                <path d="M237.556339,128.01519 C237.556339,128.01519 239.59383,133.49526 239.349686,134.81394 C239.349686,134.81394 240.428357,134.62857 242.348215,135.21576 C242.348215,135.21576 241.420469,125.43999 237.556339,128.01519" id="Fill-160" fill="#434343"></path>
                <path d="M240.029959,134.99043 C240.029959,134.99043 239.359674,139.09965 236.874956,138.63567 C234.391348,138.17169 236.275694,135.16026 236.275694,135.16026 C236.275694,135.16026 237.24561,134.29002 240.029959,134.99043" id="Fill-161" fill="#7F3E1E"></path>
                <path d="M191.56076,83.901015 C191.56076,87.112356 190.406626,90.053079 188.490097,92.332242 C186.091939,95.18361 182.494148,97.006896 178.458007,97.006896 C174.298685,97.006896 170.513347,95.055627 168.088555,91.914105 C166.374,89.698545 165.354145,86.918883 165.354145,83.901015 C165.354145,76.662483 171.221364,70.794468 178.458007,70.794468 C185.694651,70.794468 191.56076,76.662483 191.56076,83.901015" id="Fill-162" fill="#EEF0F7"></path>
                <path d="M187.829799,90.927759 C187.78097,90.879696 187.672215,90.839847 187.61007,90.798555 C187.605631,90.795225 187.601192,90.793227 187.597863,90.790452 L187.596753,90.791895 C187.021905,90.47388 185.336203,89.636385 182.011409,88.681785 C182.010299,88.681785 182.009189,88.681119 182.00808,88.681119 C181.405488,88.497192 180.949383,88.377534 180.7918,88.337463 L180.509925,87.888912 C180.464425,87.436698 180.474413,86.762484 180.48773,86.311269 C180.956042,85.767813 181.377745,84.918441 181.61634,83.593545 C181.691803,83.650599 181.750619,83.526057 181.750619,83.526057 C181.708449,83.451354 182.383173,81.80478 182.261101,81.433374 C182.192297,81.222585 182.052469,81.249225 181.942605,81.310608 C181.959251,81.214482 181.975897,81.114804 181.993653,81.008688 C181.993653,81.008688 182.261101,78.483993 180.982676,77.077401 C180.850616,76.950417 180.380085,76.919004 180.380085,76.919004 C178.328167,76.290744 177.09746,76.571241 176.327298,76.901355 C175.184261,77.837418 175.097701,79.430712 175.149859,80.308278 C175.173164,80.515959 175.196468,80.724972 175.219773,80.928435 C175.220883,80.932764 175.220883,80.934762 175.220883,80.934762 C175.23087,81.016014 175.239748,81.094824 175.249736,81.173523 C175.1432,81.107256 175.003373,81.073956 174.925691,81.282414 C174.789192,81.648603 175.287467,83.292846 175.349613,83.394411 C175.349613,83.394411 175.457258,83.56302 175.541599,83.486541 C175.542708,83.486097 175.542708,83.483433 175.542708,83.482878 C175.779084,84.927321 176.203006,85.81965 176.649124,86.367657 C176.616941,86.954181 176.532601,87.643491 176.472674,88.083717 L175.965521,88.613742 L175.965521,88.614186 C175.938887,88.622955 175.912253,88.631724 175.885619,88.64127 C175.885619,88.639161 175.885619,88.63794 175.885619,88.63794 C170.14935,90.168741 168.529123,91.234341 168.529123,91.234341 C168.384857,91.322808 168.237261,91.560348 168.088555,91.914105 C170.483383,95.016444 174.249856,97.006785 178.458007,97.006785 C182.501916,97.006785 186.096378,95.178282 188.490097,92.332242 C188.242624,91.729401 188.065065,91.163079 187.829799,90.927759" id="Fill-163" fill="#78C2FF"></path>
                <polygon id="Fill-164" fill="#E0E0E0" points="86.1712137 95.720406 86.4058137 95.720406 86.4058137 73.572798 86.1712137 73.572798"></polygon>
                <polygon id="Fill-165" fill="#E0E0E0" points="102.855556 95.720406 103.090156 95.720406 103.090156 73.572798 102.855556 73.572798"></polygon>
                <polygon id="Fill-166" fill="#E0E0E0" points="119.539454 95.720406 119.77472 95.720406 119.77472 73.572798 119.539454 73.572798"></polygon>
                <polygon id="Fill-167" fill="#E0E0E0" points="136.224462 95.720406 136.458618 95.720406 136.458618 73.572798 136.224462 73.572798"></polygon>
                <polygon id="Fill-168" fill="#E0E0E0" points="152.90836 95.720406 153.143626 95.720406 153.143626 73.572798 152.90836 73.572798"></polygon>
                <polygon id="Fill-169" fill="#B8B8B8" points="86.2885137 97.802211 88.9430224 97.802211 88.9430224 97.032426 86.2885137 97.032426"></polygon>
                <polygon id="Fill-170" fill="#D9D9D9" points="86.2885137 71.421063 90.2847035 71.421063 90.2847035 70.843752 86.2885137 70.843752"></polygon>
                <polygon id="Fill-171" fill="#D9D9D9" points="86.2885137 72.488217 91.9570884 72.488217 91.9570884 71.910906 86.2885137 71.910906"></polygon>
                <polygon id="Fill-172" fill="#D9D9D9" points="102.792966 71.421063 107.484744 71.421063 107.484744 70.843752 102.792966 70.843752"></polygon>
                <polygon id="Fill-173" fill="#D9D9D9" points="102.792966 72.488217 105.793049 72.488217 105.793049 71.910906 102.792966 71.910906"></polygon>
                <polygon id="Fill-174" fill="#D9D9D9" points="119.77472 71.421063 122.68225 71.421063 122.68225 70.843752 119.77472 70.843752"></polygon>
                <polygon id="Fill-175" fill="#D9D9D9" points="119.77472 72.488217 123.16277 72.488217 123.16277 71.910906 119.77472 71.910906"></polygon>
                <polygon id="Fill-176" fill="#D9D9D9" points="136.458618 71.421063 140.693403 71.421063 140.693403 70.843752 136.458618 70.843752"></polygon>
                <polygon id="Fill-177" fill="#D9D9D9" points="136.458618 72.488217 139.847778 72.488217 139.847778 71.910906 136.458618 71.910906"></polygon>
                <polygon id="Fill-178" fill="#D9D9D9" points="153.025993 71.421063 155.555101 71.421063 155.555101 70.843752 153.025993 70.843752"></polygon>
                <polygon id="Fill-179" fill="#D9D9D9" points="153.025993 72.488217 155.050167 72.488217 155.050167 71.910906 153.025993 71.910906"></polygon>
                <polygon id="Fill-180" fill="#B8B8B8" points="102.972856 97.802211 105.627254 97.802211 105.627254 97.032426 102.972856 97.032426"></polygon>
                <polygon id="Fill-181" fill="#B8B8B8" points="119.77472 97.802211 122.429229 97.802211 122.429229 97.032426 119.77472 97.032426"></polygon>
                <polygon id="Fill-182" fill="#B8B8B8" points="136.458618 97.802211 139.113127 97.802211 139.113127 97.032426 136.458618 97.032426"></polygon>
                <polygon id="Fill-183" fill="#B8B8B8" points="153.143626 97.802211 155.798135 97.802211 155.798135 97.032426 153.143626 97.032426"></polygon>
            </g>
        </g>
    </g>
</svg>