<?xml version="1.0" encoding="UTF-8"?>
<svg width="32px" height="32px" viewBox="0 0 32 32" version="1.1" xmlns="http://www.w3.org/2000/svg" xmlns:xlink="http://www.w3.org/1999/xlink">
    <!-- Generator: sketchtool 52.5 (67469) - http://www.bohemiancoding.com/sketch -->
    <title>5D4A00C7-94BC-447B-B41A-32CDF663B357</title>
    <desc>Created with sketchtool.</desc>
    <g id="Page-1" stroke="none" stroke-width="1" fill="none" fill-rule="evenodd">
        <g id="Starter-account-page-" transform="translate(-570.000000, -433.000000)">
            <g id="architecture-and-city" transform="translate(570.000000, 433.000000)">
                <g id="Group" transform="translate(2.125000, 9.562500)" fill="#A0A1B9">
                    <path d="M6.777125,0.0564375 L0.966125,0.0564375 C0.448375,0.0564375 0.028625,0.4761875 0.028625,0.9939375 L0.028625,3.8010625 C0.028625,4.3188125 0.448375,4.7385625 0.966125,4.7385625 L1.386125,4.7385625 L1.386125,12.00325 L0.966125,12.00325 C0.448375,12.00325 0.028625,12.423 0.028625,12.94075 L0.028625,15.748875 C0.028625,16.266625 0.448375,16.686375 0.966125,16.686375 L6.777125,16.686375 C7.294875,16.686375 7.714625,16.266625 7.714625,15.748875 L7.714625,12.94075 C7.714625,12.423 7.294875,12.00325 6.777125,12.00325 L6.357125,12.00325 L6.357125,4.7385625 L6.777125,4.7385625 C7.294875,4.7385625 7.714625,4.3188125 7.714625,3.8010625 L7.714625,0.9939375 C7.714625,0.4761875 7.294875,0.0564375 6.777125,0.0564375 Z" id="XMLID_1485_"></path>
                    <g transform="translate(10.000000, 0.000000)">
                        <path d="M6.7804375,0.0564375 L0.9695,0.0564375 C0.45175,0.0564375 0.032,0.4761875 0.032,0.9939375 L0.032,3.8010625 C0.032,4.3188125 0.45175,4.7385625 0.9695,4.7385625 L1.3895,4.7385625 L1.3895,12.00325 L0.9695,12.00325 C0.45175,12.00325 0.032,12.423 0.032,12.94075 L0.032,15.748875 C0.032,16.266625 0.45175,16.686375 0.9695,16.686375 L6.7804375,16.686375 C7.2981875,16.686375 7.7179375,16.266625 7.7179375,15.748875 L7.7179375,12.94075 C7.7179375,12.423 7.2981875,12.00325 6.7804375,12.00325 L6.3604375,12.00325 L6.3604375,4.7385625 L6.7804375,4.7385625 C7.2981875,4.7385625 7.7179375,4.3188125 7.7179375,3.8010625 L7.7179375,0.9939375 C7.7179375,0.4761875 7.29825,0.0564375 6.7804375,0.0564375 Z" id="XMLID_1484_"></path>
                        <path d="M16.783875,4.7385625 C17.301625,4.7385625 17.721375,4.3188125 17.721375,3.8010625 L17.721375,0.9939375 C17.721375,0.4761875 17.301625,0.0564375 16.783875,0.0564375 L10.972875,0.0564375 C10.455125,0.0564375 10.035375,0.4761875 10.035375,0.9939375 L10.035375,3.8010625 C10.035375,4.3188125 10.455125,4.7385625 10.972875,4.7385625 L11.392875,4.7385625 L11.392875,12.00325 L10.972875,12.00325 C10.455125,12.00325 10.035375,12.423 10.035375,12.94075 L10.035375,15.748875 C10.035375,16.266625 10.455125,16.686375 10.972875,16.686375 L16.783875,16.686375 C17.301625,16.686375 17.721375,16.266625 17.721375,15.748875 L17.721375,12.94075 C17.721375,12.423 17.301625,12.00325 16.783875,12.00325 L16.363875,12.00325 L16.363875,4.7385625 L16.783875,4.7385625 Z" id="XMLID_1483_"></path>
                    </g>
                </g>
                <path d="M30.467,7.2200625 L1.533,7.2200625 C1.21775,7.3796875 1.019,7.7030625 1.019,8.0564375 L1.019,10.5564375 C1.019,11.0741875 1.43875,11.4939375 1.9565,11.4939375 L30.0434375,11.4939375 C30.5611875,11.4939375 30.9809375,11.0741875 30.9809375,10.5564375 L30.9809375,8.0564375 C30.9809375,7.7030625 30.78225,7.3796875 30.467,7.2200625 Z" id="XMLID_1480_" fill="#E5E8F0"></path>
                <g id="XMLID_1492_" transform="translate(1.062500, 0.000000)" fill="#A0A1B9">
                    <path d="M29.4045,7.2200625 L15.361,0.1093125 C15.09475,-0.0255 14.7801875,-0.0255 14.5139375,0.1093125 L0.4705,7.2200625 C0.251875,7.33075 0.0894375,7.5203125 0.0103125,7.7439375 L29.864625,7.7439375 C29.7855,7.5203125 29.623125,7.33075 29.4045,7.2200625 Z" id="XMLID_1478_"></path>
                </g>
                <path d="M13.0945625,9.6189375 C12.5768125,9.6189375 12.1570625,10.0386875 12.1570625,10.5564375 L12.1570625,13.3635625 C12.1570625,13.8813125 12.5768125,14.3010625 13.0945625,14.3010625 L13.5145625,14.3010625 L13.5145625,21.56575 L13.0945625,21.56575 C12.5768125,21.56575 12.1570625,21.9855 12.1570625,22.50325 L12.1570625,25.311375 C12.1570625,25.829125 12.5768125,26.248875 13.0945625,26.248875 L16,26.248875 L16,9.6189375 L13.0945625,9.6189375 Z" id="XMLID_1490_" fill="#A0A1B9"></path>
                <path d="M1.533,7.2200625 C1.21775,7.3796875 1.019,7.7030625 1.019,8.0564375 L1.019,10.5564375 C1.019,11.0741875 1.43875,11.4939375 1.9565,11.4939375 L16,11.4939375 L16,7.4583125 L1.533,7.2200625 Z" id="XMLID_1491_" fill="#E5E8F0"></path>
                <path d="M15.5765,0.1093125 L1.533,7.2200625 C1.314375,7.33075 1.1519375,7.5203125 1.0728125,7.7439375 L16,7.7439375 L16,0.0081875 C15.8548125,0.0081875 15.709625,0.0419375 15.5765,0.1093125 Z" id="XMLID_1493_" fill="#A0A1B9"></path>
                <path d="M23,24.3739375 C18.3261806,24.3739375 11.3154514,24.3739375 1.9678125,24.3739375 C1.4500625,24.3739375 1.0303125,24.7936875 1.0303125,25.3114375 L1.0303125,28.039125 C1.0303125,28.556875 1.4500625,28.976625 1.9678125,28.976625 L30.032125,28.976625 C30.549875,28.976625 30.969625,28.556875 30.969625,28.039125 L30.969625,25.3114375 C30.9696875,24.793625 30.5499375,24.3739375 30.0321875,24.3739375 C26.9067708,24.3739375 24.5627083,24.3739375 23,24.3739375 Z" id="XMLID_1482_" fill="#E5E8F0"></path>
                <path d="M1.9678125,24.3739375 C1.4500625,24.3739375 1.0303125,24.7936875 1.0303125,25.3114375 L1.0303125,28.039125 C1.0303125,28.556875 1.4500625,28.976625 1.9678125,28.976625 L16,28.976625 L16,24.3739375 L1.9678125,24.3739375 Z" id="XMLID_1489_" fill="#E5E8F0"></path>
                <path d="M31.0625,27.1015625 L0.9375,27.1015625 C0.41975,27.1015625 0,27.5213125 0,28.0390625 L0,30.8043125 C0,31.3220625 0.41975,31.7418125 0.9375,31.7418125 L31.0625,31.7418125 C31.58025,31.7418125 32,31.3220625 32,30.8043125 L32,28.0390625 C32,27.5213125 31.58025,27.1015625 31.0625,27.1015625 Z" id="XMLID_1481_" fill="#A0A1B9"></path>
                <path d="M0.9375,27.1015625 C0.41975,27.1015625 0,27.5213125 0,28.0390625 L0,30.8043125 C0,31.3220625 0.41975,31.7418125 0.9375,31.7418125 L16,31.7418125 L16,27.1015625 L0.9375,27.1015625 Z" id="XMLID_1487_" fill="#A0A1B9"></path>
            </g>
        </g>
    </g>
</svg>