<?xml version="1.0" encoding="UTF-8"?>
<svg width="20px" height="20px" viewBox="0 0 20 20" version="1.1" xmlns="http://www.w3.org/2000/svg" xmlns:xlink="http://www.w3.org/1999/xlink">
    <!-- Generator: sketchtool 52.5 (67469) - http://www.bohemiancoding.com/sketch -->
    <title>29AD5882-2810-4582-9C6B-FF9B0B18A740</title>
    <desc>Created with sketchtool.</desc>
    <g id="Page-1" stroke="none" stroke-width="1" fill="none" fill-rule="evenodd">
        <g id="4---Dashboard" transform="translate(-1166.000000, -20.000000)" fill="#C1C4CB" fill-rule="nonzero">
            <g id="Group-7-Copy">
                <g id="Group-28" transform="translate(216.000000, 0.000000)">
                    <g id="Group-26" transform="translate(821.000000, 13.000000)">
                        <g id="Group-6" transform="translate(117.000000, 0.000000)">
                            <g id="Group-4" transform="translate(12.000000, 6.000000)">
                                <g id="log_out_icon-copy" transform="translate(0.000000, 1.000000)">
                                    <g id="log_out_icon">
                                        <path d="M13.4998357,16.750315 C13.4814978,18.5451314 11.9308849,20 10.0273556,20 L9.97251773,20 C8.06911437,20 6.51850221,18.5451314 6.50016435,16.750315 L0.472440945,16.750315 C0.211574803,16.750315 -3.57047725e-13,16.5387402 -3.57047725e-13,16.277874 L-3.57047725e-13,13.5386614 C-3.57047725e-13,13.3647507 0.157480315,13.2072703 0.472440945,13.0662205 L2.50952756,13.0662205 L2.50952756,9.35433071 C2.50952756,5.4007874 5.63275591,2.16314961 9.54149606,1.97874016 L9.54149606,0.472440945 C9.54149606,0.211574803 9.75307087,-5.32907052e-15 10.013937,-5.32907052e-15 C10.2748031,-5.32907052e-15 10.486378,0.211574803 10.486378,0.472440945 L10.486378,1.98433071 C14.3477165,2.21929134 17.4174016,5.43480315 17.4174016,9.35425197 L17.4174016,13.0662205 L19.4544094,13.0662205 C19.7153543,13.0662205 19.9268504,13.2777165 19.9268504,13.5386614 L19.9268504,16.277874 C19.9268504,16.5387402 19.7152756,16.750315 19.4544094,16.750315 L13.4998357,16.750315 Z" id="Combined-Shape"></path>
                                    </g>
                                </g>
                            </g>
                        </g>
                    </g>
                </g>
            </g>
        </g>
    </g>
</svg>