<?xml version="1.0" encoding="UTF-8"?>
<svg width="32px" height="27px" viewBox="0 0 32 27" version="1.1" xmlns="http://www.w3.org/2000/svg" xmlns:xlink="http://www.w3.org/1999/xlink">
    <!-- Generator: sketchtool 52.5 (67469) - http://www.bohemiancoding.com/sketch -->
    <title>2E672BE3-E927-4F3C-9868-326B47793F8F</title>
    <desc>Created with sketchtool.</desc>
    <g id="Page-1" stroke="none" stroke-width="1" fill="none" fill-rule="evenodd">
        <g id="Starter-account-page-" transform="translate(-570.000000, -359.000000)">
            <g id="briefcase-(1)" transform="translate(570.000000, 359.000000)">
                <path d="M20,6 C19.264,6 18.6666667,5.40266667 18.6666667,4.66666667 L18.6666667,2.66666667 L13.3333333,2.66666667 L13.3333333,4.66666667 C13.3333333,5.40266667 12.736,6 12,6 C11.264,6 10.6666667,5.40266667 10.6666667,4.66666667 L10.6666667,2.66666667 C10.6666667,1.196 11.8626667,0 13.3333333,0 L18.6666667,0 C20.1373333,0 21.3333333,1.196 21.3333333,2.66666667 L21.3333333,4.66666667 C21.3333333,5.40266667 20.736,6 20,6 Z" id="Path" fill="#A0A1B9"></path>
                <path d="M16.32,15.9466667 C16.2133333,15.9866667 16.1066667,16 16,16 C15.8933333,16 15.7866667,15.9866667 15.68,15.9466667 L0,10.72 L0,23 C0,25.0266667 1.64,26.6666667 3.66666667,26.6666667 L28.3333333,26.6666667 C30.36,26.6666667 32,25.0266667 32,23 L32,10.72 L16.32,15.9466667 Z" id="Path" fill="#A0A1B9"></path>
                <path d="M32,7.66666667 L32,10.72 L16.32,15.9466667 C16.2133333,15.9866667 16.1066667,16 16,16 C15.8933333,16 15.7866667,15.9866667 15.68,15.9466667 L0,10.72 L0,7.66666667 C0,5.64 1.64,4 3.66666667,4 L28.3333333,4 C30.36,4 32,5.64 32,7.66666667 Z" id="Path" fill="#C2C7D2"></path>
            </g>
        </g>
    </g>
</svg>