<?xml version="1.0" encoding="UTF-8"?>
<svg width="48px" height="48px" viewBox="0 0 48 48" version="1.1" xmlns="http://www.w3.org/2000/svg" xmlns:xlink="http://www.w3.org/1999/xlink">
    <!-- Generator: sketchtool 52.5 (67469) - http://www.bohemiancoding.com/sketch -->
    <title>11DF2FBE-150D-4C77-95BF-6DE9E768A466</title>
    <desc>Created with sketchtool.</desc>
    <defs>
        <linearGradient x1="0%" y1="0%" x2="101.999998%" y2="100.999999%" id="linearGradient-1">
            <stop stop-color="#9596AD" offset="0%"></stop>
            <stop stop-color="#D5D6EB" offset="100%"></stop>
        </linearGradient>
    </defs>
    <g id="Page-1" stroke="none" stroke-width="1" fill="none" fill-rule="evenodd">
        <g id="Activation-page-Remita-Copy" transform="translate(-627.000000, -383.000000)">
            <g id="Group-17" transform="translate(627.000000, 383.000000)">
                <g id="itinerary-copy" fill="url(#linearGradient-1)">
                    <path d="M48,24 C48,37.2550049 37.2550049,48 24,48 C10.7449951,48 0,37.2550049 0,24 C0,10.7449951 10.7449951,0 24,0 C37.2550049,0 48,10.7449951 48,24 Z" id="Path"></path>
                </g>
                <g id="portfolio-(1)" transform="translate(9.600000, 10.800000)">
                    <path d="M20.30625,2.53125 L20.30625,4.21875 C20.30625,4.69119375 19.9350563,5.0625 19.4625,5.0625 L18.61875,5.0625 L18.61875,2.53125 C18.61875,2.05869375 18.2475563,1.6875 17.775,1.6875 L11.025,1.6875 C10.5524438,1.6875 10.18125,2.05869375 10.18125,2.53125 L10.18125,5.0625 L9.3375,5.0625 C8.86494375,5.0625 8.49375,4.69119375 8.49375,4.21875 L8.49375,2.53125 C8.49375,1.13056875 9.62431875,0 11.025,0 L17.775,0 C19.1756813,0 20.30625,1.13056875 20.30625,2.53125 Z" id="Path" fill="#F1F3F7"></path>
                    <path d="M17.775,1.6875 L14.4,1.6875 L14.4,0 L17.775,0 C19.1756813,0 20.30625,1.13056875 20.30625,2.53125 L20.30625,4.21875 C20.30625,4.69119375 19.9350563,5.0625 19.4625,5.0625 L18.61875,5.0625 L18.61875,2.53125 C18.61875,2.05869375 18.2475563,1.6875 17.775,1.6875 Z" id="Path" fill="#F1F3F7"></path>
                    <path d="M28.8,4.21875 L28.8,22.78125 C28.8,24.1818188 27.6694313,25.3125 26.26875,25.3125 L2.53125,25.3125 C1.13056875,25.3125 0,24.1818188 0,22.78125 L0,4.21875 C0,3.9825 0.10125,3.78 0.25318125,3.62806875 L4.55625,13.314375 L24.24375,13.314375 L28.546875,3.6280125 C28.69875,3.78 28.8,3.9825 28.8,4.21875 Z" id="Path" fill="#FFFFFF"></path>
                    <path d="M28.8,4.21875 L28.8,22.78125 C28.8,24.1818188 27.6694313,25.3125 26.26875,25.3125 L14.4,25.3125 L14.4,13.314375 L24.24375,13.314375 L28.546875,3.6280125 C28.69875,3.78 28.8,3.9825 28.8,4.21875 Z" id="Path" fill="#F1F3F7"></path>
                    <path d="M28.5468187,3.62806875 L25.93125,13.314375 C25.6275,14.4280687 24.6319312,15.1875 23.484375,15.1875 L5.31568125,15.1875 C4.16806875,15.1875 3.1725,14.428125 2.86875,13.314375 L0.25318125,3.62806875 C0.405,3.47625 0.6075,3.375 0.84375,3.375 L27.95625,3.375 C28.1925,3.375 28.395,3.47625 28.5468187,3.62806875 Z" id="Path" fill="#FFFFFF"></path>
                    <path d="M28.5468187,3.62806875 L25.93125,13.314375 C25.6275,14.4280687 24.6319313,15.1875 23.484375,15.1875 L14.4,15.1875 L14.4,3.375 L27.95625,3.375 C28.1925,3.375 28.395,3.47625 28.5468187,3.62806875 Z" id="Path" fill="#E5E8F0"></path>
                    <path d="M17.775,12.65625 L11.025,12.65625 C10.5524438,12.65625 10.18125,13.0274437 10.18125,13.5 L10.18125,16.875 C10.18125,17.3474438 10.5524438,17.71875 11.025,17.71875 L17.775,17.71875 C18.2475562,17.71875 18.61875,17.3474438 18.61875,16.875 L18.61875,13.5 C18.61875,13.0274437 18.2475562,12.65625 17.775,12.65625 Z" id="Path" fill="#E5E8F0"></path>
                    <path d="M18.61875,13.5 L18.61875,16.875 C18.61875,17.3474438 18.2475563,17.71875 17.775,17.71875 L14.4,17.71875 L14.4,12.65625 L17.775,12.65625 C18.2475563,12.65625 18.61875,13.0274437 18.61875,13.5 Z" id="Path" fill="#A0A1B9"></path>
                </g>
            </g>
        </g>
    </g>
</svg>