<?xml version="1.0" encoding="UTF-8"?>
<svg width="49px" height="50px" viewBox="0 0 49 50" version="1.1" xmlns="http://www.w3.org/2000/svg" xmlns:xlink="http://www.w3.org/1999/xlink">
    <!-- Generator: sketchtool 52.5 (67469) - http://www.bohemiancoding.com/sketch -->
    <title>5CC5C83D-C51F-40C1-8D54-EA31C74EA5CB</title>
    <desc>Created with sketchtool.</desc>
    <defs>
        <ellipse id="path-1" cx="24.4" cy="24.8079877" rx="24.4" ry="24.8079877"></ellipse>
        <path d="M1.56431996,0.0495381298 C2.05140682,1.30450408 2.18027763,2.60429025 1.9509324,3.94889663 C1.72158717,5.29350301 1.29099086,7.31041258 0.659143494,9.99962534 C7.59866409,14.8308025 11.5134008,16.9373526 12.4033537,16.3192753 C13.1966447,15.7683304 12.8832344,14.2839815 11.4631229,11.8662288 C11.075849,11.2068917 10.8283369,10.4725616 10.7364505,9.71030434 C10.4786549,7.57172287 10.3893736,6.00981533 10.4686067,5.02458174 C10.5623229,3.8592562 7.59422729,2.20090834 1.56431996,0.0495381298 Z" id="path-3"></path>
    </defs>
    <g id="Page-1" stroke="none" stroke-width="1" fill="none" fill-rule="evenodd">
        <g id="2---Information/-reg" transform="translate(-832.000000, -128.000000)">
            <g id="Group-2" transform="translate(832.000000, 128.000000)">
                <g id="Group-63-Copy-9">
                    <g id="Path-35">
                        <g id="path-19-+-neck_shadow-+-Path-35-Mask">
                            <mask id="mask-2" fill="white">
                                <use xlink:href="#path-1"></use>
                            </mask>
                            <use id="Mask" fill="#E7E9ED" xlink:href="#path-1"></use>
                            <path d="M17.8309866,28.7745765 C18.3180735,30.0295425 18.4469443,31.3293287 18.2175991,32.673935 C17.9882538,34.0185414 17.5576575,36.035451 16.9258102,38.7246637 C23.8653308,43.5558409 27.7800675,45.662391 28.6700204,45.0443137 C29.4633114,44.4933688 29.1499011,43.0090199 27.7297896,40.5912672 C27.3425157,39.9319301 27.0950036,39.1976 27.0031172,38.4353427 C26.7453215,36.2967613 26.6560403,34.7348537 26.7352733,33.7496201 C26.8289895,32.5842946 23.860894,30.9259467 17.8309866,28.7745765 Z" id="path-19" fill="#BA7B56" mask="url(#mask-2)"></path>
                            <g id="neck_shadow" mask="url(#mask-2)">
                                <g transform="translate(16.266667, 28.725038)">
                                    <mask id="mask-4" fill="white">
                                        <use xlink:href="#path-3"></use>
                                    </mask>
                                    <g id="Mask" stroke="none" fill="none"></g>
                                    <path d="M10.0509486,10.019117 C13.4472753,10.019117 15.7095868,6.25909724 15.7095868,2.80598121 C15.7095868,-0.647134823 12.95632,-3.44643846 9.55999327,-3.44643846 C6.16366656,-3.44643846 3.41039977,-0.647134823 3.41039977,2.80598121 C3.41039977,6.25909724 6.65462185,10.019117 10.0509486,10.019117 Z" id="neck_shadow" stroke="none" fill="#7A5E46" fill-rule="evenodd" mask="url(#mask-4)"></path>
                                </g>
                            </g>
                            <path d="M5.55447154,43.2964547 C10.5112058,40.3862376 14.9635997,38.8723851 18.9116531,38.7548971 C19.626767,38.7336164 22.9078772,40.1807649 23.9919864,40.2037308 C25.8053809,40.2421459 27.8852816,38.5965368 29.3060958,38.7548971 C34.1478038,39.2945413 37.6324858,40.516607 41.2617886,42.3256445 C28.9303793,52.3513645 20.9627899,56.2316125 17.3590201,53.9663887 C13.7552505,51.7011648 9.82040096,48.1445201 5.55447154,43.2964547 Z" id="Path-35" fill="#F9F9F9" mask="url(#mask-2)" transform="translate(23.408130, 46.668383) scale(-1, 1) translate(-23.408130, -46.668383) "></path>
                        </g>
                    </g>
                    <path d="M24.9453387,15.1121672 C33.9249016,12.1358481 38.4146831,11.8153215 38.4146831,14.1505871 C38.4146831,17.6534858 37.4938703,18.9584872 32.2673055,18.9584872 C28.7829289,18.9584872 26.3429527,18.2945391 24.947377,16.9666428 L24.7306974,16.6405595 C24.4045704,16.1497676 24.4961541,15.4976293 24.9453387,15.1121672 Z" id="Path-35-Copy" fill="#232323" transform="translate(31.475339, 15.784503) scale(-1, 1) rotate(90.000000) translate(-31.475339, -15.784503) "></path>
                    <g id="face-Clipped" transform="translate(16.266667, 8.704557)" fill="#BA7B56">
                        <path d="M0.150374753,12.7433153 L1.4366593,19.8868772 C1.94770957,22.7250662 3.84451055,25.1035997 6.47009285,26.1986571 L6.5142952,26.2170927 C11.1769482,28.1617558 16.5073099,25.8951877 18.4199913,21.1545714 C18.7586278,20.3152545 18.9743578,19.4299781 19.0602937,18.5270048 C19.3558441,15.4215056 18.8058584,11.6111601 17.410337,7.09596855 C16.0364039,0.731498302 12.0872876,-1.33023148 5.56298761,0.910779162 C1.75065543,2.2202648 0.994342981,4.62342545 0.40526403,7.09596855 C0.125896462,8.26855903 0.0409334136,10.151008 0.150374753,12.7433153 Z" id="face"></path>
                    </g>
                    <g id="Group-59-Clipped" transform="translate(13.698246, 21.761393)">
                        <g id="Group" transform="translate(0.556599, 0.155691)">
                            <path d="M2.61274203,0.494679852 L2.61274203,0.494679852 C3.62642904,0.489242969 4.45259219,1.30659119 4.45802908,2.3202782 C4.45806405,2.32679963 4.45806428,2.3333212 4.45802974,2.33984264 L4.45067153,3.72929198 C4.44522889,4.75702549 3.61346845,5.58884224 2.58573531,5.59435445 L2.58573531,5.59435445 C1.5720483,5.59979134 0.745885154,4.78244312 0.74044827,3.76875611 C0.740413293,3.76223467 0.740413072,3.7557131 0.740447608,3.74919167 L0.747805816,2.35974233 C0.753248459,1.33200882 1.5850089,0.500192071 2.61274203,0.494679852 Z" id="Rectangle" fill="#BA7B56" transform="translate(2.599239, 3.044517) rotate(-20.000000) translate(-2.599239, -3.044517) "></path>
                            <path d="M2.10199032,2.33326888 C2.40284466,2.50331135 2.64130369,2.69865485 2.8173679,2.9192985 C2.99761946,3.14518973 3.13423084,3.42486575 3.22720203,3.75832656 C3.25886887,3.87190602 3.20022413,3.99131303 3.09189856,4.03381914 C3.0196875,4.06215419 2.93855655,4.02560686 2.91068749,3.95218838 C2.90619929,3.94036464 2.90328264,3.92798496 2.90201473,3.91537693 C2.87793879,3.6759404 2.78549804,3.44677811 2.62469522,3.22788979 C2.45731286,3.00004522 2.24423258,2.82195441 1.98545441,2.69361738 C1.9421852,2.67215908 1.90735662,2.63911204 1.8834442,2.59952719 C1.84781738,2.66254158 1.81883197,2.72966224 1.79723438,2.79983412 L1.70624844,3.09545294 C1.67302049,3.20341256 1.5625763,3.26612381 1.45474255,3.23826036 C1.35466166,3.21240021 1.2941491,3.10894822 1.31958397,3.0071939 C1.32049214,3.00356068 1.32150581,2.99995557 1.32262366,2.9963833 L1.4010689,2.74569832 C1.49052916,2.45981289 1.6771554,2.21563758 1.92753308,2.05689077 L2.32938323,1.80210594 C2.37027633,1.7761785 2.42409941,1.78886488 2.44960045,1.83044175 C2.46115329,1.84927751 2.46534156,1.8718322 2.46133856,1.89365398 C2.43798666,2.02095347 2.36746286,2.1342819 2.26432004,2.21025345 L2.15996489,2.28711798 C2.1400282,2.30180269 2.12069352,2.31720019 2.10199032,2.33326888 Z" id="Combined-Shape" fill="#7A5E46"></path>
                        </g>
                    </g>
                    <g id="left_brow-Clipped" transform="translate(22.259649, 19.150026)" stroke="#000000" stroke-width="0.8424">
                        <path d="M0.723650376,1.96589714 C1.9270966,0.442009816 3.11660281,-0.00619226622 4.29216902,0.621290756" id="left_brow"></path>
                    </g>
                    <g id="left_eye-Clipped" transform="translate(23.971930, 21.761393)" fill="#000000">
                        <ellipse id="left_eye" transform="translate(1.637167, 1.763551) rotate(-4.000000) translate(-1.637167, -1.763551) " cx="1.63716728" cy="1.76355087" rx="1" ry="1.68062383"></ellipse>
                    </g>
                    <g id="right_eye-Clipped" transform="translate(31.677193, 20.020481)" fill="#000000">
                        <ellipse id="right_eye" transform="translate(1.734614, 2.428777) rotate(-4.000000) translate(-1.734614, -2.428777) " cx="1.73461415" cy="2.42877718" rx="1" ry="1.68062383"></ellipse>
                    </g>
                    <g id="right_brow-Clipped" transform="translate(30.821053, 17.409114)" stroke="#000000" stroke-width="0.8424">
                        <path d="M0.208720842,2.65950313 C1.40848818,1.13981281 2.59733362,0.695234164 3.77525714,1.32576746" id="right_brow" transform="translate(1.991989, 1.853962) scale(-1, 1) rotate(10.000000) translate(-1.991989, -1.853962) "></path>
                    </g>
                    <g id="nose1-Clipped" transform="translate(27.396491, 22.631848)" stroke="#000000" stroke-width="0.75816">
                        <path d="M1.29253447,2.8078601 C2.35748919,1.42927045 3.41699074,1.02918367 4.47103914,1.6075999" id="nose1" transform="translate(2.881787, 2.079512) scale(-1, 1) rotate(-150.000000) translate(-2.881787, -2.079512) "></path>
                        <path d="M0.47501756,8.174739 C0.246602367,5.87145631 4.0102713,5.7087324 4.83018938,7.30024537" id="nose1" stroke-linecap="round" stroke-linejoin="round" transform="translate(2.647618, 7.212836) scale(-1, 1) rotate(-150.000000) translate(-2.647618, -7.212836) "></path>
                    </g>
                    <g id="yellow_tshirt-Clipped" transform="translate(14.554386, 36.559140)" fill="#141414">
                        <g id="Group" transform="translate(0.417629, 0.551996)">
                            <path d="M1.64629283,0.913002009 L0.10440736,2.28095124 C4.62191448,5.44859379 9.42697315,5.33102433 14.5195835,1.92824284 L13.3055983,0 C10.4578224,1.28549523 8.23714346,1.92824284 6.64356173,1.92824284 C5.04997988,1.92824284 3.38422359,1.58982924 1.64629283,0.913002009 Z" id="Path-36" transform="translate(7.311995, 2.285831) scale(-1, 1) translate(-7.311995, -2.285831) "></path>
                        </g>
                    </g>
                    <path d="M17.7214092,24.4605 C17.9859079,22.8545297 18.4267389,21.289601 19.0439024,19.7657138 C19.9387611,17.5561473 19.5938565,15.24732 19.5728997,15.1940521 C28.3290192,16.5386585 33.0191872,15.7318946 33.643404,12.7737606 C34.5797292,8.33655956 31.0212344,7.798717 26.3151178,7.798717 C25.1268029,7.798717 23.9460088,7.76656825 22.7727357,7.70227074 C18.9518861,7.49288132 15.5454634,10.131389 14.7295267,13.9322869 C14.3399632,15.7470004 14.2792627,17.2432739 14.5474255,18.4211074 C15.0984644,20.8413989 16.1564589,22.8545297 17.7214092,24.4605 Z" id="Path-34" fill="#232323"></path>
                </g>
            </g>
        </g>
    </g>
</svg>