<?xml version="1.0" encoding="UTF-8"?>
<svg width="48px" height="48px" viewBox="0 0 48 48" version="1.1" xmlns="http://www.w3.org/2000/svg" xmlns:xlink="http://www.w3.org/1999/xlink">
    <!-- Generator: sketchtool 52.5 (67469) - http://www.bohemiancoding.com/sketch -->
    <title>99F98A1E-A210-4696-B414-4A6D2B88CEC9</title>
    <desc>Created with sketchtool.</desc>
    <defs>
        <linearGradient x1="0%" y1="0%" x2="101.999998%" y2="100.999999%" id="linearGradient-1">
            <stop stop-color="#9596AD" offset="0%"></stop>
            <stop stop-color="#D5D6EB" offset="100%"></stop>
        </linearGradient>
    </defs>
    <g id="Page-1" stroke="none" stroke-width="1" fill="none" fill-rule="evenodd">
        <g id="Activation-page-Remita-Copy" transform="translate(-927.000000, -383.000000)">
            <g id="itinerary" transform="translate(927.000000, 383.000000)">
                <path d="M48,24 C48,37.2550049 37.2550049,48 24,48 C10.7449951,48 0,37.2550049 0,24 C0,10.7449951 10.7449951,0 24,0 C37.2550049,0 48,10.7449951 48,24 Z" id="Path" fill="url(#linearGradient-1)"></path>
                <g id="Group" transform="translate(15.937500, 12.843750)" fill="#FFFFFF">
                    <path d="M3.49255369,13.4117432 C3.49255369,14.1038818 2.93151853,14.664917 2.23937991,14.664917 C1.54724119,14.664917 0.986206031,14.1038818 0.986206031,13.4117432 C0.986206031,12.7196045 1.54724119,12.1585693 2.23937991,12.1585693 C2.93151853,12.1585693 3.49255369,12.7196045 3.49255369,13.4117432 Z" id="Path"></path>
                    <path d="M3.49255369,9.026001 C3.49255369,9.71813962 2.93151853,10.2791748 2.23937991,10.2791748 C1.54724119,10.2791748 0.986206031,9.71813962 0.986206031,9.026001 C0.986206031,8.33386228 1.54724119,7.77282712 2.23937991,7.77282712 C2.93151853,7.77282712 3.49255369,8.33386228 3.49255369,9.026001 Z" id="Path"></path>
                    <path d="M3.49255369,17.7974854 C3.49255369,18.489624 2.93151853,19.050293 2.23937991,19.050293 C1.54724119,19.050293 0.986206031,18.489624 0.986206031,17.7974854 C0.986206031,17.1053467 1.54724119,16.5443115 2.23937991,16.5443115 C2.93151853,16.5443115 3.49255369,17.1053467 3.49255369,17.7974854 Z" id="Path"></path>
                    <path d="M6.62512209,21.2431641 C6.62512209,21.9353027 6.06408694,22.4963379 5.37194822,22.4963379 C4.67980959,22.4963379 4.11877444,21.9353027 4.11877444,21.2431641 C4.11877444,20.5513916 4.67980959,19.9903565 5.37194822,19.9903565 C6.06408694,19.9903565 6.62512209,20.5513916 6.62512209,21.2431641 Z" id="Path"></path>
                    <path d="M11.010498,21.2431641 C11.010498,21.9353027 10.4494629,22.4963379 9.75769041,22.4963379 C9.06555178,22.4963379 8.50451663,21.9353027 8.50451663,21.2431641 C8.50451663,20.5513916 9.06555178,19.9903565 9.75769041,19.9903565 C10.4494629,19.9903565 11.010498,20.5513916 11.010498,21.2431641 Z" id="Path"></path>
                    <path d="M15.3962402,21.2431641 C15.3962402,21.9353027 14.8352051,22.4963379 14.1434326,22.4963379 C13.451294,22.4963379 12.8902588,21.9353027 12.8902588,21.2431641 C12.8902588,20.5513916 13.451294,19.9903565 14.1434326,19.9903565 C14.8352051,19.9903565 15.3962402,20.5513916 15.3962402,21.2431641 Z" id="Path"></path>
                    <path d="M16.3363037,14.5378418 C16.3363037,13.3275146 15.3544922,12.3468018 14.1434326,12.3468018 C12.932373,12.3468018 11.9505615,13.3275146 11.9505615,14.5378418 L11.9505615,14.6048584 C11.9505615,15.6573487 13.0433349,16.9768067 13.685669,17.6616211 C13.9339599,17.9263916 14.3525391,17.9263916 14.6008301,17.6616211 C15.2435302,16.9768067 16.3363037,15.6573487 16.3363037,14.6048584 L16.3363037,14.5378418 Z" id="Path"></path>
                    <path d="M4.432251,2.25805669 C4.432251,1.04772947 3.4504395,0.0666504375 2.23937991,0.0666504375 C1.02832031,0.0666504375 0.0465088125,1.04772947 0.0465088125,2.25805669 L0.0465088125,2.32507322 C0.0465088125,3.37719731 1.13891606,4.69665525 1.78161619,5.38183594 C2.02990725,5.64624019 2.44848638,5.64624019 2.69677734,5.38183594 C3.33947756,4.69665525 4.432251,3.37719731 4.432251,2.32507322 L4.432251,2.25805669 Z" id="Path"></path>
                </g>
            </g>
        </g>
    </g>
</svg>