<?xml version="1.0" encoding="UTF-8"?>
<svg width="32px" height="28px" viewBox="0 0 32 28" version="1.1" xmlns="http://www.w3.org/2000/svg" xmlns:xlink="http://www.w3.org/1999/xlink">
    <!-- Generator: sketchtool 52.5 (67469) - http://www.bohemiancoding.com/sketch -->
    <title>1CE94675-C4DA-4472-8683-81AF4CBE1B8B</title>
    <desc>Created with sketchtool.</desc>
    <g id="Page-1" stroke="none" stroke-width="1" fill="none" fill-rule="evenodd">
        <g id="Starter-account-page-" transform="translate(-570.000000, -282.000000)">
            <g id="name-(1)" transform="translate(570.000000, 282.000000)">
                <path d="M28.3332519,4 L3.66674806,4 C1.644043,4 -2.84217094e-14,5.644043 -2.84217094e-14,7.66674806 L-2.84217094e-14,24.3332519 C-2.84217094e-14,26.355957 1.644043,28 3.66674806,28 L28.3332519,28 C30.355957,28 32,26.355957 32,24.3332519 L32,7.66674806 C32,5.644043 30.355957,4 28.3332519,4 Z" id="Path" fill="#E5E8F0"></path>
                <path d="M19,0 L13,0 C11.7133789,0 10.6667481,1.04663087 10.6667481,2.33325194 L10.6667481,5 C10.6667481,6.28662112 11.7133789,7.33325194 13,7.33325194 L19,7.33325194 C20.2866211,7.33325194 21.3332519,6.28662112 21.3332519,5 L21.3332519,2.33325194 C21.3332519,1.04663087 20.2866211,0 19,0 Z" id="Path" fill="#A0A1B9"></path>
                <path d="M13.3332519,12.6667481 C13.3332519,14.5075684 11.8410644,16 10,16 C8.15893556,16 6.66674806,14.5075684 6.66674806,12.6667481 C6.66674806,10.8256836 8.15893556,9.33325194 10,9.33325194 C11.8410644,9.33325194 13.3332519,10.8256836 13.3332519,12.6667481 Z" id="Path" fill="#A0A1B9"></path>
                <path d="M12.3332519,17.3332519 L7.66674806,17.3332519 C5.644043,17.3332519 4,18.9772949 4,21 L4,21.6667481 C4,22.21875 4.44799806,22.6667481 5,22.6667481 L15,22.6667481 C15.5520019,22.6667481 16,22.21875 16,21.6667481 L16,21 C16,18.9772949 14.355957,17.3332519 12.3332519,17.3332519 Z" id="Path" fill="#A0A1B9"></path>
                <g id="Group" transform="translate(18.625000, 10.000000)" fill="#A0A1B9">
                    <path d="M8.375,2 L1.04174806,2 C0.489746125,2 0.0417480625,1.55200194 0.0417480625,1 C0.0417480625,0.447998062 0.489746125,0 1.04174806,0 L8.375,0 C8.92700194,0 9.375,0.447998062 9.375,1 C9.375,1.55200194 8.92700194,2 8.375,2 Z" id="Path"></path>
                    <path d="M8.375,7.33325194 L1.04174806,7.33325194 C0.489746125,7.33325194 0.0417480625,6.88525387 0.0417480625,6.33325194 C0.0417480625,5.78125 0.489746125,5.33325194 1.04174806,5.33325194 L8.375,5.33325194 C8.92700194,5.33325194 9.375,5.78125 9.375,6.33325194 C9.375,6.88525387 8.92700194,7.33325194 8.375,7.33325194 Z" id="Path"></path>
                    <path d="M8.375,12.6667481 L1.04174806,12.6667481 C0.489746125,12.6667481 0.0417480625,12.21875 0.0417480625,11.6667481 C0.0417480625,11.1147461 0.489746125,10.6667481 1.04174806,10.6667481 L8.375,10.6667481 C8.92700194,10.6667481 9.375,11.1147461 9.375,11.6667481 C9.375,12.21875 8.92700194,12.6667481 8.375,12.6667481 Z" id="Path"></path>
                </g>
            </g>
        </g>
    </g>
</svg>