<?xml version="1.0" encoding="UTF-8"?>
<svg width="39px" height="39px" viewBox="0 0 39 39" version="1.1" xmlns="http://www.w3.org/2000/svg" xmlns:xlink="http://www.w3.org/1999/xlink">
    <!-- Generator: Sketch 52.5 (67469) - http://www.bohemiancoding.com/sketch -->
    <title>Group 25</title>
    <desc>Created with Sketch.</desc>
    <g id="Page-1" stroke="none" stroke-width="1" fill="none" fill-rule="evenodd">
        <g id="4---Dashboard-Copy" transform="translate(-411.000000, -694.000000)">
            <g id="Group-24" transform="translate(255.000000, 595.000000)">
                <g id="Group-25" transform="translate(156.000000, 99.000000)">
                    <circle id="Oval" fill="#F9FAFD" cx="19.5" cy="19.5" r="19.5"></circle>
                    <path d="M14.2,24.6 C12.4326888,24.6 11,23.1673112 11,21.4 C11,19.6326888 12.4326888,18.2 14.2,18.2 C15.9673112,18.2 17.4,19.6326888 17.4,21.4 C17.4,23.1673112 15.9673112,24.6 14.2,24.6 Z M21.8,27 C20.6954305,27 19.8,26.1045695 19.8,25 C19.8,23.8954305 20.6954305,23 21.8,23 C22.9045695,23 23.8,23.8954305 23.8,25 C23.8,26.1045695 22.9045695,27 21.8,27 Z M22.2,20.6 C19.5490332,20.6 17.4,18.4509668 17.4,15.8 C17.4,13.1490332 19.5490332,11 22.2,11 C24.8509668,11 27,13.1490332 27,15.8 C27,18.4509668 24.8509668,20.6 22.2,20.6 Z" id="🔹-Icon-Color" fill="#D5DAE9" fill-rule="nonzero"></path>
                </g>
            </g>
        </g>
    </g>
</svg>