<?xml version="1.0" encoding="UTF-8"?>
<svg width="72px" height="21px" viewBox="0 0 72 21" version="1.1" xmlns="http://www.w3.org/2000/svg" xmlns:xlink="http://www.w3.org/1999/xlink">
    <!-- Generator: Sketch 52.5 (67469) - http://www.bohemiancoding.com/sketch -->
    <title>remita_footer_logo</title>
    <desc>Created with Sketch.</desc>
    <defs>
        <polygon id="path-1" points="4.871825 12.7385852 0 12.7385852 0 0.00424619506 9.74365001 0.00424619506 9.74365001 12.7385852"></polygon>
        <polygon id="path-3" points="0.0663556056 12.5262754 3.13243136 12.5262754 3.13243136 0.0689263614 0.0663556056 0.0689263614"></polygon>
    </defs>
    <g id="Revision-2" stroke="none" stroke-width="1" fill="none" fill-rule="evenodd">
        <g id="SS_Websie_v2" transform="translate(-388.000000, -484.000000)">
            <g id="Group-5" transform="translate(289.000000, 451.000000)">
                <g id="Group-12">
                    <g id="remita_footer_logo" transform="translate(99.000000, 33.000000)">
                        <path d="M64.8597465,17.3232019 C62.7225655,17.4931559 60.9468949,16.0612328 60.9468949,13.5618162 C60.9468949,11.0650536 62.7188948,9.66157992 64.8529296,9.82484613 C69.2701341,10.1625248 69.2757977,16.9721478 64.8597465,17.3232019 Z M71.6716054,7.91957841 L71.6703467,7.91957841 L71.6703467,7.65811896 C71.6703467,7.52001147 71.5587576,7.40812419 71.4209496,7.40812419 L68.8560801,7.40812419 C68.7183769,7.40812419 68.6066831,7.52001147 68.6066831,7.65811896 L68.6066831,7.91066141 L68.6081514,7.91193526 L68.6066831,7.91193526 L68.6066831,7.9732928 C68.5940979,8.09537085 68.4513604,8.13401124 68.3655711,8.04717657 C67.8635254,7.53901319 66.2035339,7.06874707 64.6903704,7.06874707 C61.0741106,7.04358834 58.2365616,9.2835624 58.2365616,13.5618162 C58.2365616,17.9155462 60.9484681,20.1804666 64.6150686,20.1556264 C65.9806708,20.1305738 67.5478459,19.9596645 68.6065783,18.5447261 L68.6065783,19.9477751 C68.6065783,20.0857765 68.7183769,20.1976637 68.8560801,20.1976637 L71.4209496,20.1976637 C71.5587576,20.1976637 71.6703467,20.0857765 71.6703467,19.9477751 L71.6703467,19.4710336 L71.6716054,19.0464141 L71.6716054,7.91957841 Z" id="Fill-1" fill="#F16521" fill-rule="nonzero"></path>
                        <path d="M12.3677431,14.6691177 C12.5685823,16.2042234 13.8996798,17.3117373 16.0591998,17.3117373 C17.1892482,17.3117373 18.6708439,16.8837208 19.3740434,16.1541183 L21.3328291,18.0917633 C20.0270069,19.450758 17.8923428,20.1050967 16.0088588,20.1050967 C11.7397403,20.1050967 9.20339769,17.4625833 9.20339769,13.486234 C9.20339769,9.71136659 11.7650156,6.99337708 15.782954,6.99337708 C19.9266398,6.99337708 22.5130087,9.56041433 22.0360286,14.6691177 L12.3677431,14.6691177 Z M19.0977978,12.1272392 C18.8969585,10.5166575 17.6413724,9.71136659 15.8834261,9.71136659 C14.2259518,9.71136659 12.8697888,10.5166575 12.4178743,12.1272392 L19.0977978,12.1272392 Z" id="Fill-3" fill="#F16521" fill-rule="nonzero"></path>
                        <g id="Group-7" transform="translate(0.000000, 7.464068)">
                            <g id="Fill-5-Clipped">
                                <mask id="mask-2" fill="white">
                                    <use xlink:href="#path-1"></use>
                                </mask>
                                <g id="path-1"></g>
                                <path d="M6.55444877,0.00424619506 C5.29896758,0.00424619506 4.01789642,0.230886856 3.06383139,1.76599253 L3.06383139,0.552429977 C3.06383139,0.414428638 2.95213751,0.302541398 2.81432928,0.302541398 L0.249565038,0.302541398 C0.11175681,0.302541398 -4.19507544e-05,0.414428638 -4.19507544e-05,0.552429977 L-4.19507544e-05,1.29094945 L-4.19507544e-05,1.75166161 L-4.19507544e-05,2.16035789 L-4.19507544e-05,3.36542805 L-4.19507544e-05,10.2614611 L-4.19507544e-05,10.9095366 L0.00289460205,10.9128274 L-4.19507544e-05,10.914526 L-4.19507544e-05,11.8239548 L-4.19507544e-05,12.4884843 C-4.19507544e-05,12.6265918 0.11175681,12.7385852 0.249565038,12.7385852 L2.81432928,12.7385852 C2.95213751,12.7385852 3.06383139,12.6265918 3.06383139,12.4884843 L3.06383139,11.1941379 C3.06383139,11.1314004 3.0710679,11.0719536 3.06383139,11.0114454 L3.06383139,9.0856897 L3.06383139,6.19519859 C3.06383139,3.90533175 4.54532228,3.04951113 6.15256056,3.04951113 C7.1569665,3.04951113 7.73462835,3.3262569 8.36263119,3.85469587 L9.74365001,1.18712998 C9.06572584,0.507632619 7.83499558,0.00424619506 6.55444877,0.00424619506" id="Fill-5" fill="#F16521" mask="url(#mask-2)"></path>
                            </g>
                        </g>
                        <g id="Group-10" transform="translate(44.467800, 7.676377)">
                            <g id="Fill-8-Clipped">
                                <mask id="mask-4" fill="white">
                                    <use xlink:href="#path-3"></use>
                                </mask>
                                <g id="path-3"></g>
                                <path d="M3.13243136,10.963389 L3.13243136,5.88239201 L3.13127772,5.88239201 L3.13127772,0.31881494 C3.13127772,0.180813601 3.01958383,0.0689263614 2.88167073,0.0689263614 L0.317011363,0.0689263614 C0.179203135,0.0689263614 0.0672994974,0.180813601 0.0672994974,0.31881494 L0.0672994974,8.61842782 C0.0672994974,8.62278014 0.0685580201,8.62692016 0.0687677741,8.63127254 L0.0687677741,10.6972588 L0.0728579726,10.702248 L0.0672994974,10.702248 L0.0672994974,10.9676352 C0.066984867,10.9748538 0.0663556056,10.9823907 0.0663556056,10.9899278 C0.0663556056,10.9973586 0.066984867,11.0047894 0.0672994974,11.0122203 L0.0672994974,12.2762064 C0.0672994974,12.4143139 0.179203135,12.5263073 0.317011363,12.5263073 L2.88167073,12.5263073 C3.01958383,12.5263073 3.13127772,12.4143139 3.13127772,12.2762064 L3.13127772,11.012751 C3.13138259,11.0050017 3.13243136,10.9974647 3.13243136,10.9899278 C3.13243136,10.9823907 3.13169723,10.9748538 3.13127772,10.967529 L3.13127772,10.9634952 L3.13243136,10.963389 Z" id="Fill-8" fill="#F16521" mask="url(#mask-4)"></path>
                            </g>
                        </g>
                        <path d="M37.438741,7.61941484 C35.8316076,7.61941484 34.400143,8.12258902 33.2951601,9.88433532 C32.5919605,8.17290639 31.1103648,7.56909746 29.628769,7.56909746 C28.4483796,7.56909746 27.01702,8.02195419 26.3642662,9.28031409 L26.3642662,8.01654026 C26.3642662,7.87843278 26.2524675,7.7665455 26.1146592,7.7665455 L23.5498949,7.7665455 C23.4120867,7.7665455 23.3003929,7.87843278 23.3003929,8.01654026 L23.3003929,9.59920329 L23.3003929,10.8295384 L23.3003929,17.1347134 L23.3003929,18.3736469 L23.3003929,19.9477115 C23.3003929,20.0857128 23.4120867,20.1977062 23.5498949,20.1977062 L26.1146592,20.1977062 C26.2524675,20.1977062 26.3642662,20.0857128 26.3642662,19.9477115 L26.3642662,18.3736469 L26.3642662,13.5587802 C26.3642662,11.9228274 27.3436066,10.4380392 29.000976,10.4380392 C30.683411,10.4380392 31.5373186,11.9228274 31.5373186,13.5587802 L31.5373186,18.3736469 L31.5451844,18.3830947 L31.5451844,19.9525946 C31.5451844,20.090702 31.6568782,20.2025893 31.7946865,20.2025893 L34.3594507,20.2025893 C34.4972589,20.2025893 34.6090577,20.090702 34.6090577,19.9525946 L34.6090577,16.5498 L34.6009822,16.5498 L34.6009822,13.5587802 C34.6009822,11.9228274 35.6305585,10.4883566 37.2880329,10.4883566 C38.9454023,10.4883566 39.6235362,11.87251 39.6235362,13.5082505 L39.6235362,17.1347134 L39.6233265,17.1347134 L39.6233265,19.9477115 C39.6233265,20.0857128 39.7351252,20.1977062 39.8728286,20.1977062 L42.4375928,20.1977062 C42.5755059,20.1977062 42.6871999,20.0857128 42.6871999,19.9477115 L42.6871999,18.3736469 L42.6871999,17.1347134 L42.6871999,13.5082505 C42.6871999,9.7837005 40.9544239,7.61941484 37.438741,7.61941484" id="Fill-11" fill="#F16521"></path>
                        <path d="M34.5889423,5.18168491 C33.9728955,5.80523865 32.974048,5.80523865 32.3580012,5.18168491 C31.7419544,4.55813116 31.7419544,3.54711212 32.3580012,2.92355837 C32.974048,2.30000463 33.9728955,2.30000463 34.5889423,2.92355837 C35.2049891,3.54711212 35.2049891,4.55813116 34.5889423,5.18168491" id="Fill-13" fill="#F16521"></path>
                        <path d="M34.5889423,2.92361145 C35.2049891,3.5471652 35.2049891,4.55818424 34.5889423,5.18173798 C33.9728955,5.80529173 32.974048,5.80529173 32.3580012,5.18173798" id="Fill-15" fill="#D95129"></path>
                        <path d="M40.9410626,5.02903419 C40.1239668,5.85608683 38.799162,5.85608683 37.9820661,5.02903419 C37.1650752,4.20198155 37.1650752,2.86103315 37.9820661,2.03398051 C38.799162,1.20703402 40.1239668,1.20703402 40.9410626,2.03398051 C41.7581584,2.86103315 41.7581584,4.20198155 40.9410626,5.02903419" id="Fill-17" fill="#F16521"></path>
                        <path d="M40.9410626,2.0340442 C41.7581584,2.86109684 41.7581584,4.20204524 40.9410626,5.02909788 C40.1239668,5.85604437 38.799162,5.85604437 37.9820661,5.02909788" id="Fill-19" fill="#D95129"></path>
                        <path d="M48.1374104,4.82201095 C47.0476347,5.92506628 45.2807738,5.92506628 44.1907883,4.82201095 C43.1011174,3.71895563 43.1011174,1.93045827 44.1907883,0.827296798 C45.2807738,-0.275758523 47.0476347,-0.275758523 48.1374104,0.827296798 C49.227291,1.93045827 49.227291,3.71895563 48.1374104,4.82201095" id="Fill-21" fill="#1CA78B"></path>
                        <path d="M48.1374104,0.827371105 C49.227291,1.93042643 49.227291,3.71892378 48.1374104,4.82208526 C47.0476347,5.92514058 45.2807738,5.92514058 44.1907883,4.82208526" id="Fill-23" fill="#168972"></path>
                        <path d="M57.5188786,16.8140938 C57.5188786,16.8140938 56.953697,16.9995464 56.5918718,17.0907334 C56.2303611,17.1824512 55.9211841,17.2283102 55.6651796,17.2283102 C55.4691647,17.2283102 55.2844765,17.2053807 55.1113248,17.1597341 C54.9377535,17.113769 54.7835845,17.030119 54.6477689,16.9080409 C54.5121631,16.7860689 54.4025668,16.618238 54.3199238,16.4045483 C54.2370711,16.1910708 54.1957496,15.9164482 54.1957496,15.5807865 L54.1957496,8.9081032 L57.3469853,8.9081032 C57.4834301,8.9081032 57.5939704,8.79494214 57.5939704,8.65556075 L57.5939704,6.05954327 C57.5939704,5.92005576 57.4834301,5.80689466 57.3469853,5.80689466 L54.1957496,5.80689466 L54.1957496,1.99827001 L53.1331369,1.99827001 C52.892025,3.38645733 52.4437811,4.51520213 51.7881957,5.38461056 C51.1326104,6.25433747 50.2771296,6.91026847 49.2223827,7.3525097 L49.2223827,8.83984566 L50.940371,8.83984566 L50.940371,15.3520227 C50.940371,16.1757845 51.011897,16.8929669 51.1552637,17.5027205 C51.2983158,18.1130049 51.5282059,18.6164974 51.8446195,19.0130921 C52.1611379,19.409899 52.5828479,19.7034172 53.1104835,19.8939652 C53.6379094,20.0844071 54.6435739,20.1953389 55.4119019,20.1800526 C57.2334036,20.1438538 57.9671223,19.6455628 58.2989529,19.4315546 L57.5188786,16.8140938 Z" id="Fill-25" fill="#F16521"></path>
                    </g>
                </g>
            </g>
        </g>
    </g>
</svg>