<?xml version="1.0" encoding="UTF-8"?>
<svg width="156px" height="18px" viewBox="0 0 156 18" version="1.1" xmlns="http://www.w3.org/2000/svg" xmlns:xlink="http://www.w3.org/1999/xlink">
    <!-- Generator: sketchtool 52.5 (67469) - http://www.bohemiancoding.com/sketch -->
    <title>CC3C659C-FE63-4B07-8BF8-BEF075D9E8E4</title>
    <desc>Created with sketchtool.</desc>
    <defs>
        <polygon id="path-1" points="3.70254558 9.39965171 0 9.39965171 0 0.00313321722 7.40509115 0.00313321722 7.40509115 9.39965171"></polygon>
        <polygon id="path-3" points="0.050429696 9.24299082 2.3806212 9.24299082 2.3806212 0.0508599486 0.050429696 0.0508599486"></polygon>
    </defs>
    <g id="Page-1" stroke="none" stroke-width="1" fill="none" fill-rule="evenodd">
        <g id="1-Success-State" transform="translate(-618.000000, -800.000000)">
            <g id="secured-by-remita" transform="translate(618.000000, 800.000000)">
                <g id="secured_by" transform="translate(23.000000, 3.000000)" fill="#FFFFFF">
                    <path d="M6.40625,8.34082031 C6.40625,9.220382 6.08724277,9.90624754 5.44921875,10.3984375 C4.81119473,10.8906275 3.94531797,11.1367188 2.8515625,11.1367188 C1.66666074,11.1367188 0.755211523,10.984051 0.1171875,10.6787109 L0.1171875,9.55761719 C0.527345801,9.73079514 0.973955918,9.86751252 1.45703125,9.96777344 C1.94010658,10.0680344 2.41861742,10.1181641 2.89257812,10.1181641 C3.66732158,10.1181641 4.25064908,9.97119288 4.64257812,9.67724609 C5.03450717,9.38329931 5.23046875,8.97428647 5.23046875,8.45019531 C5.23046875,8.10383941 5.16097075,7.82015084 5.02197266,7.59912109 C4.88297457,7.37809134 4.65055501,7.17415458 4.32470703,6.98730469 C3.99885905,6.80045479 3.50325854,6.58854285 2.83789062,6.3515625 C1.90819848,6.01887854 1.24397986,5.62467676 0.845214844,5.16894531 C0.446449829,4.71321387 0.247070312,4.11849325 0.247070312,3.38476562 C0.247070312,2.61457948 0.536455439,2.00162988 1.11523438,1.54589844 C1.69401331,1.09016699 2.45963065,0.862304688 3.41210938,0.862304688 C4.40560393,0.862304688 5.31933177,1.04459453 6.15332031,1.40917969 L5.79101562,2.42089844 C4.96614171,2.07454254 4.1640664,1.90136719 3.38476562,1.90136719 C2.76952817,1.90136719 2.28873871,2.03352732 1.94238281,2.29785156 C1.59602691,2.5621758 1.42285156,2.92903411 1.42285156,3.3984375 C1.42285156,3.7447934 1.48665301,4.02848197 1.61425781,4.24951172 C1.74186262,4.47054147 1.9571925,4.67333892 2.26025391,4.85791016 C2.56331532,5.04248139 3.02701511,5.24641815 3.65136719,5.46972656 C4.69954951,5.84342635 5.42073371,6.244464 5.81494141,6.67285156 C6.20914911,7.10123912 6.40625,7.65722314 6.40625,8.34082031 Z M11.4443359,11.1367188 C10.3369085,11.1367188 9.46305659,10.7994825 8.82275391,10.125 C8.18245123,9.45051746 7.86230469,8.51400339 7.86230469,7.31542969 C7.86230469,6.10774136 8.159665,5.14844105 8.75439453,4.4375 C9.34912407,3.72655895 10.1477814,3.37109375 11.1503906,3.37109375 C12.0891974,3.37109375 12.8320285,3.67984717 13.3789062,4.29736328 C13.925784,4.91487939 14.1992188,5.72948713 14.1992188,6.74121094 L14.1992188,7.45898438 L9.03808594,7.45898438 C9.06087251,8.33854606 9.28303826,9.00618262 9.70458984,9.46191406 C10.1261414,9.91764551 10.7197227,10.1455078 11.4853516,10.1455078 C12.2919962,10.1455078 13.0895143,9.97688971 13.8779297,9.63964844 L13.8779297,10.6513672 C13.476886,10.8245451 13.0974953,10.9487301 12.7397461,11.0239258 C12.3819969,11.0991215 11.9501978,11.1367188 11.4443359,11.1367188 Z M11.1367188,4.32128906 C10.5351532,4.32128906 10.0555031,4.51725064 9.69775391,4.90917969 C9.34000472,5.30110873 9.12923209,5.84342102 9.06542969,6.53613281 L12.9824219,6.53613281 C12.9824219,5.82063444 12.8229183,5.2726256 12.5039062,4.89208984 C12.1848942,4.51155409 11.7291696,4.32128906 11.1367188,4.32128906 Z M19.1279297,11.1367188 C18.0432888,11.1367188 17.2036163,10.8029005 16.6088867,10.1352539 C16.0141572,9.46760734 15.7167969,8.52311809 15.7167969,7.30175781 C15.7167969,6.04849634 16.0187144,5.08008154 16.6225586,4.39648438 C17.2264028,3.71288721 18.086583,3.37109375 19.203125,3.37109375 C19.5631528,3.37109375 19.9231753,3.40983034 20.2832031,3.48730469 C20.643231,3.56477903 20.9257802,3.65592396 21.1308594,3.76074219 L20.7822266,4.72460938 C20.5315743,4.62434846 20.2581395,4.54117872 19.9619141,4.47509766 C19.6656886,4.4090166 19.403647,4.37597656 19.1757812,4.37597656 C17.6536382,4.37597656 16.8925781,5.34666998 16.8925781,7.28808594 C16.8925781,8.20866346 17.0782859,8.9150366 17.449707,9.40722656 C17.8211282,9.89941652 18.3714156,10.1455078 19.1005859,10.1455078 C19.724938,10.1455078 20.3652311,10.0110691 21.0214844,9.7421875 L21.0214844,10.7470703 C20.5201798,11.0068372 19.8890012,11.1367188 19.1279297,11.1367188 Z M23.8652344,3.5078125 L23.8652344,8.36816406 C23.8652344,8.9788442 24.0042304,9.43456881 24.2822266,9.73535156 C24.5602227,10.0361343 24.9954397,10.1865234 25.5878906,10.1865234 C26.3717487,10.1865234 26.9448224,9.97233287 27.3071289,9.54394531 C27.6694354,9.11555775 27.8505859,8.41602048 27.8505859,7.4453125 L27.8505859,3.5078125 L28.9853516,3.5078125 L28.9853516,11 L28.0488281,11 L27.8847656,9.99511719 L27.8232422,9.99511719 C27.5908192,10.3642597 27.268394,10.6468089 26.855957,10.8427734 C26.4435201,11.038738 25.9729844,11.1367188 25.4443359,11.1367188 C24.532873,11.1367188 23.8504254,10.9202496 23.3969727,10.4873047 C22.9435199,10.0543598 22.7167969,9.36165841 22.7167969,8.40917969 L22.7167969,3.5078125 L23.8652344,3.5078125 Z M34.8095703,3.37109375 C35.1422543,3.37109375 35.4407539,3.39843723 35.7050781,3.453125 L35.5478516,4.50585938 C35.2379542,4.43749966 34.9645194,4.40332031 34.7275391,4.40332031 C34.1214162,4.40332031 33.6030295,4.6494116 33.1723633,5.14160156 C32.7416971,5.63379152 32.5263672,6.24674112 32.5263672,6.98046875 L32.5263672,11 L31.3916016,11 L31.3916016,3.5078125 L32.328125,3.5078125 L32.4580078,4.89550781 L32.5126953,4.89550781 C32.7906915,4.40787517 33.1256491,4.03190236 33.5175781,3.76757812 C33.9095072,3.50325389 34.3401669,3.37109375 34.8095703,3.37109375 Z M40.2714844,11.1367188 C39.164057,11.1367188 38.290205,10.7994825 37.6499023,10.125 C37.0095997,9.45051746 36.6894531,8.51400339 36.6894531,7.31542969 C36.6894531,6.10774136 36.9868134,5.14844105 37.581543,4.4375 C38.1762725,3.72655895 38.9749299,3.37109375 39.9775391,3.37109375 C40.9163458,3.37109375 41.659177,3.67984717 42.2060547,4.29736328 C42.7529324,4.91487939 43.0263672,5.72948713 43.0263672,6.74121094 L43.0263672,7.45898438 L37.8652344,7.45898438 C37.8880209,8.33854606 38.1101867,9.00618262 38.5317383,9.46191406 C38.9532899,9.91764551 39.5468712,10.1455078 40.3125,10.1455078 C41.1191447,10.1455078 41.9166627,9.97688971 42.7050781,9.63964844 L42.7050781,10.6513672 C42.3040345,10.8245451 41.9246437,10.9487301 41.5668945,11.0239258 C41.2091453,11.0991215 40.7773463,11.1367188 40.2714844,11.1367188 Z M39.9638672,4.32128906 C39.3623017,4.32128906 38.8826515,4.51725064 38.5249023,4.90917969 C38.1671532,5.30110873 37.9563805,5.84342102 37.8925781,6.53613281 L41.8095703,6.53613281 C41.8095703,5.82063444 41.6500667,5.2726256 41.3310547,4.89208984 C41.0120427,4.51155409 40.5563181,4.32128906 39.9638672,4.32128906 Z M50.0605469,9.99511719 L49.9990234,9.99511719 C49.4749323,10.7561887 48.6910859,11.1367188 47.6474609,11.1367188 C46.6676383,11.1367188 45.9054389,10.8017612 45.3608398,10.1318359 C44.8162408,9.46191071 44.5439453,8.50944628 44.5439453,7.27441406 C44.5439453,6.03938185 44.8173801,5.08008154 45.3642578,4.39648438 C45.9111355,3.71288721 46.6721956,3.37109375 47.6474609,3.37109375 C48.6637421,3.37109375 49.4430311,3.74023068 49.9853516,4.47851562 L50.0742188,4.47851562 L50.0263672,3.93847656 L49.9990234,3.41210938 L49.9990234,0.36328125 L51.1337891,0.36328125 L51.1337891,11 L50.2109375,11 L50.0605469,9.99511719 Z M47.7910156,10.1865234 C48.5657591,10.1865234 49.1274397,9.97575081 49.4760742,9.55419922 C49.8247088,9.13264763 49.9990234,8.45247865 49.9990234,7.51367188 L49.9990234,7.27441406 C49.9990234,6.21255979 49.8224302,5.45491763 49.4692383,5.00146484 C49.1160464,4.54801206 48.5520872,4.32128906 47.7773438,4.32128906 C47.1119758,4.32128906 46.6027036,4.57991278 46.2495117,5.09716797 C45.8963198,5.61442316 45.7197266,6.34472185 45.7197266,7.28808594 C45.7197266,8.24512197 45.8951805,8.96744548 46.2460938,9.45507812 C46.597007,9.94271077 47.1119758,10.1865234 47.7910156,10.1865234 Z M60.6630859,3.38476562 C61.6474659,3.38476562 62.4119439,3.72086252 62.956543,4.39306641 C63.501142,5.06527029 63.7734375,6.01659541 63.7734375,7.24707031 C63.7734375,8.47754521 63.4988634,9.43342758 62.949707,10.1147461 C62.4005506,10.7960646 61.6383512,11.1367188 60.6630859,11.1367188 C60.1754533,11.1367188 59.7299825,11.0467131 59.3266602,10.8666992 C58.9233378,10.6866853 58.5849623,10.4098326 58.3115234,10.0361328 L58.2294922,10.0361328 L57.9902344,11 L57.1767578,11 L57.1767578,0.36328125 L58.3115234,0.36328125 L58.3115234,2.94726562 C58.3115234,3.52604456 58.2932945,4.04557062 58.2568359,4.50585938 L58.3115234,4.50585938 C58.8401719,3.7584598 59.6240182,3.38476562 60.6630859,3.38476562 Z M60.4990234,4.33496094 C59.72428,4.33496094 59.1660173,4.55712668 58.8242188,5.00146484 C58.4824202,5.445803 58.3115234,6.19433067 58.3115234,7.24707031 C58.3115234,8.29980995 58.4869774,9.05289487 58.8378906,9.50634766 C59.1888038,9.95980044 59.7516237,10.1865234 60.5263672,10.1865234 C61.2236363,10.1865234 61.7431624,9.93245697 62.0849609,9.42431641 C62.4267595,8.91617584 62.5976562,8.18587716 62.5976562,7.23339844 C62.5976562,6.25813314 62.4267595,5.53125239 62.0849609,5.05273438 C61.7431624,4.57421636 61.2145218,4.33496094 60.4990234,4.33496094 Z M64.5664062,3.5078125 L65.7832031,3.5078125 L67.4238281,7.78027344 C67.783856,8.75553873 68.007161,9.45963325 68.09375,9.89257812 L68.1484375,9.89257812 C68.2076826,9.66015509 68.3318675,9.26253537 68.5209961,8.69970703 C68.7101246,8.1368787 69.3287708,6.40626449 70.3769531,3.5078125 L71.59375,3.5078125 L68.3740234,12.0390625 C68.0550114,12.8821657 67.6824566,13.4803042 67.2563477,13.8334961 C66.8302388,14.186688 66.3072948,14.3632812 65.6875,14.3632812 C65.3411441,14.3632812 64.9993506,14.3245447 64.6621094,14.2470703 L64.6621094,13.3378906 C64.9127617,13.3925784 65.1930323,13.4199219 65.5029297,13.4199219 C66.2822305,13.4199219 66.8382145,12.9824262 67.1708984,12.1074219 L67.5878906,11.0410156 L64.5664062,3.5078125 Z" id="Secured-by"></path>
                </g>
                <path d="M10.5,6 L9.75,6 L9.75,4.57142857 C9.75,2.6 8.07,1 6,1 C3.93,1 2.25,2.6 2.25,4.57142857 L2.25,6 L1.5,6 C0.675,6 0,6.64285714 0,7.42857143 L0,14.5714286 C0,15.3571429 0.675,16 1.5,16 L10.5,16 C11.325,16 12,15.3571429 12,14.5714286 L12,7.42857143 C12,6.64285714 11.325,6 10.5,6 Z M6,12.4285714 C5.175,12.4285714 4.5,11.7857143 4.5,11 C4.5,10.2142857 5.175,9.57142857 6,9.57142857 C6.825,9.57142857 7.5,10.2142857 7.5,11 C7.5,11.7857143 6.825,12.4285714 6,12.4285714 Z M3.75,6 L3.75,4.57142857 C3.75,3.38571429 4.755,2.42857143 6,2.42857143 C7.245,2.42857143 8.25,3.38571429 8.25,4.57142857 L8.25,6 L3.75,6 Z" id="secured_icon" fill="#FFFFFF" fill-rule="nonzero"></path>
                <g id="remita_logo" transform="translate(101.000000, 0.000000)">
                    <path d="M49.2928558,12.7825863 C47.6686164,12.9079933 46.3191218,11.8513942 46.3191218,10.0071042 C46.3191218,8.16477244 47.6658267,7.12916581 49.2876751,7.24963801 C52.6447129,7.49880713 52.6490172,12.5235476 49.2928558,12.7825863 Z M54.4698107,5.84376345 L54.4688541,5.84376345 L54.4688541,5.6508356 C54.4688541,5.54892772 54.3840473,5.46636741 54.2793143,5.46636741 L52.3300354,5.46636741 C52.2253821,5.46636741 52.1404958,5.54892772 52.1404958,5.6508356 L52.1404958,5.8371837 L52.1416116,5.83812365 L52.1404958,5.83812365 L52.1404958,5.88339866 C52.1309311,5.97347862 52.0224518,6.00199091 51.9572528,5.93791663 C51.5757023,5.56294887 50.3141228,5.21594504 49.1641314,5.21594504 C46.4158047,5.19738072 44.2592916,6.85023114 44.2592916,10.0071042 C44.2592916,13.2196701 46.3203174,14.8909282 49.1069028,14.8725988 C50.1447487,14.8541128 51.3357885,14.7280008 52.1404162,13.6839346 L52.1404162,14.7192279 C52.1404162,14.8210574 52.2253821,14.9036178 52.3300354,14.9036178 L54.2793143,14.9036178 C54.3840473,14.9036178 54.4688541,14.8210574 54.4688541,14.7192279 L54.4688541,14.3674459 L54.4698107,14.0541242 L54.4698107,5.84376345 Z" id="Fill-1" fill="#F16521" fill-rule="nonzero"></path>
                    <path d="M9.39937958,10.8241688 C9.55201567,11.9569052 10.5636384,12.7741266 12.2048552,12.7741266 C13.0636824,12.7741266 14.1896826,12.4582983 14.7241082,11.9199332 L16.2127687,13.3496986 C15.220355,14.3524848 13.5980284,14.8353136 12.1665966,14.8353136 C8.92210283,14.8353136 6.99450398,12.8854342 6.99450398,9.95133288 C6.99450398,7.1659028 8.94131183,5.16033042 11.9949108,5.16033042 C15.1440767,5.16033042 17.1096952,7.05451691 16.7471943,10.8241688 L9.39937958,10.8241688 Z M14.5141639,8.94854669 C14.3615278,7.76011743 13.407293,7.1659028 12.0712688,7.1659028 C10.8116024,7.1659028 9.78093,7.76011743 9.43747883,8.94854669 L14.5141639,8.94854669 Z" id="Fill-3" fill="#F16521" fill-rule="nonzero"></path>
                    <g id="Group-7" transform="translate(0.000000, 5.507647)">
                        <g id="Fill-5-Clipped">
                            <g>
                                <mask id="mask-2" fill="white">
                                    <use xlink:href="#path-1"></use>
                                </mask>
                                <g id="path-1"></g>
                                <path d="M4.98132533,0.00313321722 C4.0271703,0.00313321722 3.05356712,0.170368685 2.32848581,1.30310504 L2.32848581,0.40763156 C2.32848581,0.305802001 2.2435994,0.223241727 2.13886633,0.223241727 L0.189667307,0.223241727 C0.084934225,0.223241727 -3.18822167e-05,0.305802001 -3.18822167e-05,0.40763156 L-3.18822167e-05,0.952576362 L-3.18822167e-05,1.29253043 L-3.18822167e-05,1.59410259 L-3.18822167e-05,2.48330964 L-3.18822167e-05,7.57181107 L-3.18822167e-05,8.05001832 L0.00219987294,8.05244659 L-3.18822167e-05,8.0536999 L-3.18822167e-05,8.72475672 L-3.18822167e-05,9.21510518 C-3.18822167e-05,9.31701305 0.084934225,9.39965171 0.189667307,9.39965171 L2.13886633,9.39965171 C2.2435994,9.39965171 2.32848581,9.31701305 2.32848581,9.21510518 L2.32848581,8.26002223 C2.32848581,8.21372898 2.33398549,8.16986393 2.32848581,8.12521558 L2.32848581,6.70422321 L2.32848581,4.57136393 C2.32848581,2.88169821 3.45440628,2.25019828 4.67589371,2.25019828 C5.43923368,2.25019828 5.87825178,2.45440572 6.35552859,2.84433459 L7.40509115,0.875969204 C6.88987455,0.374576119 5.95453002,0.00313321722 4.98132533,0.00313321722" id="Fill-5" fill="#F16521" mask="url(#mask-2)"></path>
                            </g>
                        </g>
                    </g>
                    <g id="Group-10" transform="translate(33.795150, 5.664308)">
                        <g id="Fill-8-Clipped">
                            <g>
                                <mask id="mask-4" fill="white">
                                    <use xlink:href="#path-3"></use>
                                </mask>
                                <g id="path-3"></g>
                                <path d="M2.3806212,8.08975538 L2.3806212,4.34054765 L2.37974444,4.34054765 L2.37974444,0.235249782 C2.37974444,0.133420222 2.29485804,0.0508599486 2.19004524,0.0508599486 L0.24092594,0.0508599486 C0.136192858,0.0508599486 0.0511470457,0.133420222 0.0511470457,0.235249782 L0.0511470457,6.35943619 C0.0511470457,6.36264771 0.0521035123,6.36570258 0.0522629235,6.36891416 L0.0522629235,7.89338101 L0.0553714397,7.89706253 L0.0511470457,7.89706253 L0.0511470457,8.0928886 C0.0509079292,8.09821508 0.050429696,8.10377652 0.050429696,8.109338 C0.050429696,8.11482109 0.0509079292,8.12030424 0.0511470457,8.12578737 L0.0511470457,9.05846779 C0.0511470457,9.16037566 0.136192858,9.24301432 0.24092594,9.24301432 L2.19004524,9.24301432 C2.29485804,9.24301432 2.37974444,9.16037566 2.37974444,9.05846779 L2.37974444,8.12617901 C2.37982414,8.12046088 2.3806212,8.11489944 2.3806212,8.109338 C2.3806212,8.10377652 2.38006326,8.09821508 2.37974444,8.09281025 L2.37974444,8.08983373 L2.3806212,8.08975538 Z" id="Fill-8" fill="#F16521" mask="url(#mask-4)"></path>
                            </g>
                        </g>
                    </g>
                    <path d="M28.4531248,5.62227629 C27.2317171,5.62227629 26.1438161,5.99356258 25.3040385,7.29353439 C24.7696129,6.03069117 23.6436128,5.58514769 22.5176126,5.58514769 C21.6205266,5.58514769 20.5327055,5.91930533 20.0366182,6.84783425 L20.0366182,5.91531045 C20.0366182,5.81340257 19.951652,5.73084227 19.8469189,5.73084227 L17.8977199,5.73084227 C17.7929868,5.73084227 17.7081004,5.81340257 17.7081004,5.91531045 L17.7081004,7.08313882 L17.7081004,7.99098856 L17.7081004,12.6435027 L17.7081004,13.5576973 L17.7081004,14.7191809 C17.7081004,14.8210104 17.7929868,14.903649 17.8977199,14.903649 L19.8469189,14.903649 C19.951652,14.903649 20.0366182,14.8210104 20.0366182,14.7191809 L20.0366182,13.5576973 L20.0366182,10.0048638 C20.0366182,8.79771368 20.7809085,7.70210593 22.0404951,7.70210593 C23.3191314,7.70210593 23.968094,8.79771368 23.968094,10.0048638 L23.968094,13.5576973 L23.9740719,13.5646686 L23.9740719,14.7227841 C23.9740719,14.824692 24.0589583,14.9072522 24.1636913,14.9072522 L26.1128903,14.9072522 C26.2176234,14.9072522 26.3025896,14.824692 26.3025896,14.7227841 L26.3025896,12.2119021 L26.2964523,12.2119021 L26.2964523,10.0048638 C26.2964523,8.79771368 27.0789215,7.73923453 28.3385879,7.73923453 C29.5981746,7.73923453 30.1135506,8.76058501 30.1135506,9.96757861 L30.1135506,12.6435027 L30.1133912,12.6435027 L30.1133912,14.7191809 C30.1133912,14.8210104 30.1983573,14.903649 30.3030107,14.903649 L32.2522097,14.903649 C32.3570225,14.903649 32.4419089,14.8210104 32.4419089,14.7191809 L32.4419089,13.5576973 L32.4419089,12.6435027 L32.4419089,9.96757861 C32.4419089,7.21927714 31.1250139,5.62227629 28.4531248,5.62227629" id="Fill-11" fill="#F16521"></path>
                    <path d="M26.2873021,3.82350414 C25.8191117,4.28361709 25.0599961,4.28361709 24.5918058,3.82350414 C24.1236154,3.36339119 24.1236154,2.61737218 24.5918058,2.15725923 C25.0599961,1.69714627 25.8191117,1.69714627 26.2873021,2.15725923 C26.7554924,2.61737218 26.7554924,3.36339119 26.2873021,3.82350414" id="Fill-13" fill="#F16521"></path>
                    <path d="M26.2873021,2.15729838 C26.7554924,2.61741133 26.7554924,3.36343035 26.2873021,3.82354331 C25.8191117,4.28365625 25.0599961,4.28365625 24.5918058,3.82354331" id="Fill-15" fill="#F16521"></path>
                    <path d="M31.1148595,3.71086498 C30.4938737,4.32113736 29.4870332,4.32113736 28.8660473,3.71086498 C28.2451411,3.10059261 28.2451411,2.11112259 28.8660473,1.50085021 C29.4870332,0.89065616 30.4938737,0.89065616 31.1148595,1.50085021 C31.7358453,2.11112259 31.7358453,3.10059261 31.1148595,3.71086498" id="Fill-17" fill="#F16521"></path>
                    <path d="M31.1148595,1.50089721 C31.7358453,2.11116959 31.7358453,3.1006396 31.1148595,3.71091198 C30.4938737,4.32110604 29.4870333,4.32110604 28.8660473,3.71091198" id="Fill-19" fill="#F16521"></path>
                    <path d="M36.5840226,3.55810498 C35.7558023,4.37203648 34.413003,4.37203648 33.5846233,3.55810498 C32.7564828,2.74417347 32.7564828,1.42446238 33.5846233,0.610452544 C34.413003,-0.203478959 35.7558023,-0.203478959 36.5840226,0.610452544 C37.4123226,1.42446238 37.4123226,2.74417347 36.5840226,3.55810498" id="Fill-21" fill="#1CA78B"></path>
                    <path d="M36.5840226,0.610507375 C37.4123226,1.42443888 37.4123226,2.74414997 36.5840226,3.55815981 C35.7558023,4.37209132 34.413003,4.37209132 33.5846233,3.55815981" id="Fill-23" fill="#168972"></path>
                    <path d="M43.7138586,12.4069214 C43.7138586,12.4069214 43.2843255,12.5437647 43.0093413,12.6110504 C42.7345963,12.678728 42.4996243,12.7125667 42.3050632,12.7125667 C42.1560935,12.7125667 42.015732,12.6956473 41.8841383,12.6619652 C41.7522255,12.6280482 41.6350583,12.5663239 41.5318397,12.4762438 C41.4287804,12.3862422 41.3454882,12.2624017 41.2826801,12.1047225 C41.2197128,11.9472001 41.1883088,11.7445593 41.1883088,11.4968784 L41.1883088,6.57318423 L43.5832212,6.57318423 C43.6869181,6.57318423 43.7709278,6.48968402 43.7709278,6.38683613 L43.7709278,4.47126547 C43.7709278,4.36833928 43.6869181,4.28483904 43.5832212,4.28483904 L41.1883088,4.28483904 L41.1883088,1.47449986 L40.3807323,1.47449986 C40.1974893,2.4988269 39.8568277,3.33171437 39.3585884,3.9732406 C38.8603491,4.61500181 38.2101909,5.09900555 37.4085923,5.42533014 L37.4085923,6.52281779 L38.7142488,6.52281779 L38.7142488,11.3280764 C38.7142488,11.9359204 38.7686079,12.4651209 38.8775655,12.9150509 C38.9862838,13.3653725 39.1609983,13.7368937 39.4014699,14.0295363 C39.6420213,14.3223353 39.9625173,14.5389191 40.3635159,14.6795222 C40.764355,14.820047 41.5286515,14.9019023 42.1125743,14.8906227 C43.4969001,14.863912 44.05452,14.4962289 44.3067084,14.3383148 L43.7138586,12.4069214 Z" id="Fill-25" fill="#F16521"></path>
                </g>
            </g>
        </g>
    </g>
</svg>