<?xml version="1.0" encoding="UTF-8"?>
<svg width="47px" height="47px" viewBox="0 0 47 47" version="1.1" xmlns="http://www.w3.org/2000/svg" xmlns:xlink="http://www.w3.org/1999/xlink">
    <!-- Generator: sketchtool 52.5 (67469) - http://www.bohemiancoding.com/sketch -->
    <title>786706AC-4668-483D-9239-1B32912C39D1</title>
    <desc>Created with sketchtool.</desc>
    <g id="Page-1" stroke="none" stroke-width="1" fill="none" fill-rule="evenodd">
        <g id="2---Information/-reg" transform="translate(-823.000000, -636.000000)">
            <g id="Group-11" transform="translate(264.000000, 391.000000)">
                <g id="shop(4)" transform="translate(559.000000, 245.000000)">
                    <ellipse id="Oval" fill="#E7E9ED" cx="23.2" cy="23.3870968" rx="23.2" ry="23.3870968"></ellipse>
                    <g id="Group" transform="translate(2.809375, 4.019657)" fill="#D2D2D4">
                        <rect id="Rectangle" x="3.4984875" y="0.00730846774" width="33.785" height="3.46421371"></rect>
                        <rect id="Rectangle" x="0.0670625" y="36.7725554" width="40.647125" height="3.18210685"></rect>
                    </g>
                    <rect id="Rectangle" fill="#E8E7E8" x="4.326075" y="37.609375" width="37.747125" height="3.18210685"></rect>
                    <rect id="Rectangle" fill="#FDFEFF" x="5.6437625" y="10.3831401" width="35.11175" height="27.2276966"></rect>
                    <rect id="Rectangle" fill="#F7CFA3" x="22.185" y="20.1896421" width="15.2975" height="12.4426663"></rect>
                    <rect id="Rectangle" fill="#656D7A" x="23.725625" y="21.6147933" width="12.2158875" height="9.58505544"></rect>
                    <rect id="Rectangle" fill="#F7CFA3" x="8.9175" y="20.1677167" width="10.1416625" height="17.4518901"></rect>
                    <g id="Group" transform="translate(10.331250, 21.468624)" fill="#656D7A">
                        <rect id="Rectangle" x="0.00435" y="0.090625" width="7.308" height="7.11990927"></rect>
                        <rect id="Rectangle" x="0.00435" y="8.8688256" width="7.308" height="6.20342742"></rect>
                    </g>
                    <polygon id="Path" fill="#F1592F" points="6.302425 6.99128024 1.6939625 16.968435 7.8383375 16.968435 11.1302 6.99128024"></polygon>
                    <polygon id="Path" fill="#F5EA07" points="11.1302 6.99128024 7.8383375 16.968435 13.983075 16.968435 15.957975 6.99128024"></polygon>
                    <polygon id="Path" fill="#F1592F" points="15.957975 6.99128024 13.983075 16.968435 20.1278125 16.968435 20.7861125 6.99128024"></polygon>
                    <polygon id="Path" fill="#F5EA07" points="20.7861125 6.99128024 20.1278125 16.968435 26.2721875 16.968435 25.6138875 6.99128024"></polygon>
                    <polygon id="Path" fill="#F1592F" points="25.6138875 6.99128024 26.2721875 16.968435 32.416925 16.968435 30.442025 6.99128024"></polygon>
                    <polygon id="Path" fill="#F5EA07" points="30.442025 6.99128024 32.416925 16.968435 38.5616625 16.968435 35.2698 6.99128024"></polygon>
                    <polygon id="Path" fill="#F1592F" points="35.2698 6.99128024 38.5616625 16.968435 44.7060375 16.968435 40.097575 6.99128024"></polygon>
                    <g id="Group" transform="translate(7.793750, 16.900832)" fill="#E8BB20">
                        <path d="M12.3340625,0.0657762097 L18.48025,0.0657762097 L18.48025,1.33891129 C18.48025,3.04397681 17.1031125,4.43222026 15.402625,4.43222026 C13.7112,4.43222026 12.3340625,3.04397681 12.3340625,1.33891129 L12.3340625,0.0657762097 Z" id="Path"></path>
                        <path d="M30.7632,0.0657762097 L30.7632,1.33891129 C30.7632,3.04397681 29.3954875,4.43222026 27.6946375,4.43222026 C25.99415,4.43222026 24.626075,3.04397681 24.626075,1.33891129 L24.626075,0.0657762097 L30.7632,0.0657762097 Z" id="Path"></path>
                        <path d="M0.0416875,0.0657762097 L6.187875,0.0657762097 L6.187875,1.33891129 C6.187875,3.04397681 4.8107375,4.43222026 3.1193125,4.43222026 C1.418825,4.43222026 0.0416875,3.04397681 0.0416875,1.33891129 L0.0416875,0.0657762097 Z" id="Path"></path>
                    </g>
                    <g id="Group" transform="translate(1.631250, 16.900832)" fill="#E34E30">
                        <path d="M43.0718875,0.0657762097 L43.0718875,1.33891129 C43.0718875,3.04397681 41.69475,4.43222026 40.003325,4.43222026 C38.3028375,4.43222026 36.9257,3.04397681 36.9257,1.33891129 L36.9257,0.0657762097 L43.0718875,0.0657762097 Z" id="Path"></path>
                        <path d="M12.350375,0.0657762097 L18.4965625,0.0657762097 L18.4965625,1.33891129 C18.4965625,3.04397681 17.119425,4.43222026 15.428,4.43222026 C13.7275125,4.43222026 12.350375,3.04397681 12.350375,1.33891129 L12.350375,0.0657762097 Z" id="Path"></path>
                        <path d="M24.64275,0.0657762097 L30.7889375,0.0657762097 L30.7889375,1.33891129 C30.7889375,3.04397681 29.4118,4.43222026 27.7113125,4.43222026 C26.0198875,4.43222026 24.64275,3.04397681 24.64275,1.33891129 L24.64275,0.0657762097 Z" id="Path"></path>
                        <path d="M0.0670625,0.0657762097 L6.203825,0.0657762097 L6.203825,1.33891129 C6.203825,3.04397681 4.8361125,4.43222026 3.1352625,4.43222026 C1.4344125,4.43222026 0.0667,3.04397681 0.0667,1.33891129 L0.0667,0.0657762097 L0.0670625,0.0657762097 Z" id="Path"></path>
                    </g>
                </g>
            </g>
        </g>
    </g>
</svg>