<?xml version="1.0" encoding="UTF-8"?>
<svg width="28px" height="26px" viewBox="0 0 28 26" version="1.1" xmlns="http://www.w3.org/2000/svg" xmlns:xlink="http://www.w3.org/1999/xlink">
    <!-- Generator: sketchtool 52.5 (67469) - http://www.bohemiancoding.com/sketch -->
    <title>F30A7996-D8A9-4143-804B-6A7FD5E59923</title>
    <desc>Created with sketchtool.</desc>
    <g id="Page-1" stroke="none" stroke-width="1" fill="none" fill-rule="evenodd">
        <g id="3---Dashboard-Empty-State" transform="translate(-30.000000, -294.000000)">
            <g id="Group-7">
                <g id="Group-2" transform="translate(15.000000, 232.000000)">
                    <g id="Card-Selected-Copy-3" transform="translate(0.000000, 58.000000)">
                        <g id="active_card_icon" transform="translate(15.000000, 4.000000)">
                            <rect id="Rectangle" fill="#EDEFF1" x="0" y="0" width="28" height="26"></rect>
                            <path d="M23.2638791,5 C24.2212,5 25,5.78745809 25,6.7554217 L25,19.2445783 C25,20.2125419 24.2211449,21 23.2638241,21 L4.73612091,21 C3.77880002,21 3,20.2125419 3,19.2445783 L3,6.7554217 C3,5.78745809 3.77880002,5 4.73612091,5 L23.2638791,5 Z M8.70633908,9.90642258 L6.94182213,9.90642258 C6.22773867,9.90642258 5.64683046,10.4938445 5.64683046,11.2158109 L5.64683046,12.1078776 C5.64683046,12.8298997 6.22773867,13.417266 6.94182213,13.417266 L8.70633908,13.417266 C9.42042254,13.417266 10.0013308,12.8298441 10.0013308,12.1078776 L10.0013308,11.2158109 C10.0013308,10.4937889 9.42036751,9.90642258 8.70633908,9.90642258 Z M7.41134741,12.5826784 L6.94182213,12.5826784 C6.68290084,12.5826784 6.47229685,12.3697331 6.47229685,12.1079333 L6.47229685,11.2158109 C6.47229685,10.9540112 6.68295587,10.7410658 6.94182213,10.7410658 L7.41134741,10.7410658 L7.41134741,12.5826784 Z M9.17591939,12.1078776 C9.17591939,12.3696774 8.96526037,12.5826227 8.70639411,12.5826227 L8.23686883,12.5826227 L8.23686883,10.7410102 L8.70639411,10.7410102 C8.96526037,10.7410658 9.17591939,10.9540112 9.17591939,11.2158109 L9.17591939,12.1078776 Z M8.70639411,14.8128452 L6.05956365,14.8128452 C5.83162487,14.8128452 5.64683046,14.9996383 5.64683046,15.2301668 C5.64683046,15.4606953 5.83162487,15.6474884 6.05956365,15.6474884 L8.70639411,15.6474884 C8.9343329,15.6474884 9.11912731,15.4606953 9.11912731,15.2301668 C9.11912731,14.9996383 8.9343329,14.8128452 8.70639411,14.8128452 Z M13.1177415,14.8128452 L10.4709111,14.8128452 C10.2429723,14.8128452 10.0581779,14.9996383 10.0581779,15.2301668 C10.0581779,15.4606953 10.2429723,15.6474884 10.4709111,15.6474884 L13.1177415,15.6474884 C13.3456803,15.6474884 13.5304747,15.4606953 13.5304747,15.2301668 C13.5304747,14.9996383 13.3456803,14.8128452 13.1177415,14.8128452 Z M14.8822585,17.0430119 L6.05956365,17.0430119 C5.83162487,17.0430119 5.64683046,17.2298051 5.64683046,17.4603336 C5.64683046,17.690862 5.83162487,17.8776552 6.05956365,17.8776552 L14.8823135,17.8776552 C15.1102523,17.8776552 15.2950467,17.690862 15.2950467,17.4603336 C15.2950467,17.2298051 15.1102523,17.0430119 14.8822585,17.0430119 Z M17.5290889,14.8128452 L14.8822585,14.8128452 C14.6543197,14.8128452 14.4695253,14.9996383 14.4695253,15.2301668 C14.4695253,15.4606953 14.6543197,15.6474884 14.8822585,15.6474884 L17.5290889,15.6474884 C17.7570277,15.6474884 17.9418221,15.4606953 17.9418221,15.2301668 C17.9418221,14.9996383 17.7570277,14.8128452 17.5290889,14.8128452 Z M21.9404363,14.8128452 L19.2936059,14.8128452 C19.0656671,14.8128452 18.8808727,14.9996383 18.8808727,15.2301668 C18.8808727,15.4606953 19.0656671,15.6474884 19.2936059,15.6474884 L21.9404363,15.6474884 C22.1683751,15.6474884 22.3531695,15.4606953 22.3531695,15.2301668 C22.3531695,14.9996383 22.1683751,14.8128452 21.9404363,14.8128452 Z M20.1759194,7.67625579 C19.4504995,7.67625579 18.8072411,8.03715554 18.4114024,8.59030145 C18.0155088,8.03709989 17.3722503,7.67625579 16.6468855,7.67625579 C15.4463272,7.67625579 14.4696353,8.6638057 14.4696353,9.87771085 C14.4696353,11.091616 15.4463822,12.0791659 16.6468855,12.0791659 C17.3723054,12.0791659 18.0155638,11.7182662 18.4114024,11.1651203 C18.8072961,11.7183218 19.4505546,12.0791659 20.1759194,12.0791659 C21.3764777,12.0791659 22.3531695,11.091616 22.3531695,9.87771085 C22.3531695,8.6638057 21.3764777,7.67625579 20.1759194,7.67625579 Z M16.6468305,11.2445227 C15.9014343,11.2445227 15.2950467,10.6313381 15.2950467,9.87771085 C15.2950467,9.12408363 15.9014893,8.51089905 16.6468305,8.51089905 C17.3921716,8.51089905 17.9986142,9.12408363 17.9986142,9.87771085 C17.9986142,10.6313381 17.3922266,11.2445227 16.6468305,11.2445227 Z M20.1759194,11.2445227 C19.4305232,11.2445227 18.8241356,10.6313381 18.8241356,9.87771085 C18.8241356,9.12408363 19.4305783,8.51089905 20.1759194,8.51089905 C20.9212605,8.51089905 21.5277032,9.12408363 21.5277032,9.87771085 C21.5277032,10.6313381 20.9213155,11.2445227 20.1759194,11.2445227 Z" fill="#D1D4DB"></path>
                        </g>
                    </g>
                </g>
            </g>
        </g>
    </g>
</svg>