<?xml version="1.0" encoding="UTF-8"?>
<svg width="28px" height="26px" viewBox="0 0 28 26" version="1.1" xmlns="http://www.w3.org/2000/svg" xmlns:xlink="http://www.w3.org/1999/xlink">
    <!-- Generator: sketchtool 52.5 (67469) - http://www.bohemiancoding.com/sketch -->
    <title>837FA569-90D9-4A80-9F99-1847F68D08F4</title>
    <desc>Created with sketchtool.</desc>
    <g id="Page-1" stroke="none" stroke-width="1" fill="none" fill-rule="evenodd">
        <g id="3---Dashboard-Empty-State" transform="translate(-30.000000, -260.000000)">
            <g id="Group-7">
                <g id="Group-2" transform="translate(15.000000, 232.000000)">
                    <g id="Card-Selected-Copy-2" transform="translate(0.000000, 24.000000)">
                        <g id="active_card_icon" transform="translate(15.000000, 4.000000)">
                            <rect id="Rectangle" fill="#EDEFF1" x="0" y="0" width="28" height="26"></rect>
                            <g id="exchange" transform="translate(4.000000, 3.000000)">
                                <path d="M16.25,10 C16.25,13.4518433 13.4518433,16.25 10,16.25 C6.54830934,16.25 3.75,13.4518433 3.75,10 C3.75,6.54830934 6.54830934,3.75 10,3.75 C13.4518433,3.75 16.25,6.54830934 16.25,10 Z M7.5,8.9 L12.5,8.9 L12.5,11.275 L7.5,11.275 L7.5,8.9 Z M7.5,7.9 C6.94771525,7.9 6.5,8.34771525 6.5,8.9 L6.5,11.275 C6.5,11.8272847 6.94771525,12.275 7.5,12.275 L12.5,12.275 C13.0522847,12.275 13.5,11.8272847 13.5,11.275 L13.5,8.9 C13.5,8.34771525 13.0522847,7.9 12.5,7.9 L7.5,7.9 Z M10,10.5 C10.2761424,10.5 10.5,10.2761424 10.5,10 C10.5,9.72385763 10.2761424,9.5 10,9.5 C9.72385763,9.5 9.5,9.72385763 9.5,10 C9.5,10.2761424 9.72385763,10.5 10,10.5 Z M8.31878664,1.41250609 C4.22256469,2.21374512 1.25,5.82504273 1.25,10 C1.25,12.2813416 2.17254641,14.471283 3.75,16.0913086 L3.75,14.375 L5,14.375 L5,18.125 L1.25,18.125 L1.25,16.875 L2.75497437,16.875 C1.00875855,15.0331116 -2.34479103e-13,12.5631714 -2.34479103e-13,10 C-2.34479103e-13,5.22872926 3.39752195,1.1012268 8.07815551,0.185699453 L8.31878664,1.41250609 Z M12.0500183,0.21194457 C12.484436,0.303192148 12.9156494,0.423736562 13.3331299,0.570678711 L12.9168701,1.74942016 C12.5512695,1.62063598 12.1731567,1.51504516 11.7938232,1.4350891 L12.0500183,0.21194457 Z M9.39880371,0.0181579687 C9.83749391,-0.00930785156 10.2912903,-0.00503539063 10.7305908,0.0268554687 L10.6399536,1.27380371 C10.2549744,1.24572754 9.86007691,1.24313355 9.47433473,1.26571656 L9.39880371,0.0181579687 Z M6.66564941,19.4287109 L7.08435059,18.2507324 C7.44934082,18.3807373 7.82684328,18.4863281 8.20495605,18.5650635 L7.94998168,19.7888184 C7.51632691,19.6987915 7.08435059,19.5774841 6.66564941,19.4287109 Z M17.2450256,3.125 C18.9912414,4.96688844 20,7.43698121 20,10 C20,14.7718811 16.602478,18.8993836 11.9212341,19.8144531 L11.6818237,18.5874939 C15.7775879,17.7868652 18.75,14.1757202 18.75,10 C18.75,7.71881102 17.8274536,5.52871703 16.25,3.90884398 L16.25,5.625 L15,5.625 L15,1.875 L18.75,1.875 L18.75,3.125 L17.2450256,3.125 Z M9.36004641,18.7269592 C9.74563598,18.7556457 10.1400757,18.7574768 10.5256653,18.734436 L10.6011963,19.981842 C10.4031372,19.9943543 10.2018738,20 10,20 C9.75433352,20 9.51065063,19.9913025 9.26940918,19.9737549 L9.36004641,18.7269592 Z" id="Combined-Shape" fill="#D1D4DB"></path>
                                <g id="Group"></g>
                            </g>
                        </g>
                    </g>
                </g>
            </g>
        </g>
    </g>
</svg>